<svg viewBox="0 0 1498 1498" xmlns="http://www.w3.org/2000/svg" fill-rule="evenodd" clip-rule="evenodd" stroke-linejoin="round" stroke-miterlimit="2"><path d="M553 1202c17 18 23 23 34 52-5 6-40 35-69 69 0 12-18 24-18 24 0-24-5-52-5-64-6-11-12-17-12-29 6-5 17-11 29-17 6-12 35-29 41-35zm173 81c6 29 23 81 23 81-17-11-35-17-52-29-12-6-23-12-23-17-6-18-12-58-12-69 0-24 12-47 23-47 12 6 29 12 35 23 12 18 0 41 6 58zm335-208c58 0 115 6 162 35 0 23 0 52-12 75 0 6-12 29-23 40-17-23-52-46-52-46 6 23 0 29-6 58 0 6-40 6-40 6-35-18-41-41-41-41 0 6-5 47-29 47-23 0-40 0-40-18-6-17-6-29-6-46v-23c-17 6-29 23-40 35-6 0-12-12-18-12-11-23-17-40-23-63 58-41 116-47 168-47zm-208 214c6 11 11 40 11 40 0 41-17 52-23 75-11-17-17-40-23-57-5-18-17-29-29-47 6-5 12-51 12-51 6-6 17 5 23 5 17 12 23 23 29 35zM483 815c-5-17-5-34-11-52 0-5 0-46 6-63 0-12 52-29 80-35 12 0 58-11 64 0 6 12-6 12-6 46-6 12-11 6-23 18l-75 57c-12 6-18 12-35 29zm-11-231c23-11 34-23 58-40-6-35-12-58-12-87 0-17 0-35 12-52 11-23 40-23 63-17-6 40-11 52-11 98 0 6 11 35 17 46 6 12 11 23 11 35 0 6-5 11-11 17-17 12-23 6-29 18-29 23-40 34-64 52-11 11-11 11-23 29 0 0-5-64-11-99zm6 653c0-12-6-23-12-35-6-17-6-34-12-52l-5-92v-29c23-12 51-29 75-40-6 28-12 40-12 86 0 12 12 47 18 87-12 23-18 40-35 58-6 11-17 17-17 17zm28-306c-17 23-52 58-63 75l-6-69c-6-18-6-18-6-53 29-17 41-28 69-46 12-11 53-23 110-40 0 23-5 40-11 63-58 29-81 58-93 70zm434-353h-29c0-17 11-23 29-40 17-12 34-23 46-23 11-6 34-12 34 0 0 23-17 35-34 58-12 17-18 5-46 5zm-174-34c-11-12-34-29-46-52-17-23-11-46-11-52 11-35 51-46 75-52 11 0 23 0 40 11 23 12 35 12 46 52 0 6 0 12-6 12 0 0-34 23-46 35-29 17-34 46-52 46zm174 421c-6 6-29 18-29 18-12 6-18 11-35 17-6-11-12-35-12-35s24-5 41-5c11 0 23 0 35 5zm-12-121c-6 17-6 29-23 35-17 5-29 23-41 17-17-12-11-40 0-58 12-17 35-29 52-34 24-6 18-52 18-58 6-12 0-29 0-40-12 5-12 0-35 5-23 0-35-11-46-23-12-11-40-34-52-58 29-5 52-5 81-5h75c17 5 29 17 29 29l-6 46c-6 34-6 46-12 98v17c-5 12-28 18-40 29zm358-445c18-17 41-23 64-17 29 6 34 12 46 23 17 23 11 70 6 98-6 18-23 29-41 29-29-34-57-57-98-69-6-23 12-46 23-64zm-173 116c-23-23 34-6 63 0 12 0 110 23 47 52-12 11-41 6-70 6 0-12 0-35-11-35-12-12-29-12-29-23zm150 450c0 6-6 35-6 35-23-6-40-23-69-23 0-17 0-17 6-23 34-6 52 6 69 11zm-58-104l-17-34c-12-12-17-12-35-23 0-41-6-41-6-81l-11-69c0-6 17-24 35-29 0 0 109 0 161 5 0 0-5 12-11 12-6 12-17 17-29 23-6 0-12 12-12 18-11 17-28 23-52 23-11 0-34 0-46-23 0 0 6 69 6 86 0 6 6 6 6 6 23 6 29 29 40 40 0 0 6 6 12 6 23 17 75 40 52 40 0 12-18 41-23 41-18-18-47-29-70-41zm252 313c0 44-10 86-28 124-6-12-10-22-10-26-12-6-12-6-29-6-6-6-17-6-23-6 0 0 6 29 17 58 5 9 14 19 20 22-16 22-36 42-57 59-7-18-9-32-9-35-11-11 12-52-17-52-12-6-46-17-46-17a166 166 0 0028 132c-22 11-46 19-71 24l-9-41v-92c-24 5-29 11-35 11-17 12-29 18-29 29 0 23 6 46 6 58 0 17 0 29 6 35l20 6h-98c10-14 20-25 26-41 5-17 0-46-6-75-23 6-69 12-69 29-6 17 0 34 0 46a86 86 0 015 41h-47c-2-8-5-17-5-24-5-17 0-34-5-52-6-11-18-17-29-17-12 0-41-17-41-6-29 0-6 29-6 46 0 13 17 35 33 53H554c6-3 11-7 16-12 12-17 46-52 58-64-12-11-18-28-23-40-23 0-110 35-110 35 15 25 26 51 37 81H324a283 283 0 01-284-283V324C40 167 167 40 324 40h850c126 0 232 82 269 195-46-30-96-58-145-78-35 29-58 52-75 52-18 0-6-35-6-58-18 0-29 0-46-6-12 41-18 93-47 104-11 6-17 6-23 6v-46c0-6 23-46 18-52 0 0-52 11-64 17-6 6-40 23-46 23 0 0-17-6-23-6-18-11-29-11-46-23-24 70-29 87-29 76 0 0-81-53-110-87-75 11-75 23-139 46-23 23-57 52-80 87-12 23-24 34-35 57l58 23c5-5 34-46 40-57 40-23 110-64 133-87 6 12 75 52 104 69 23 18 46 24 69 35 12-17 23-35 35-75 17 12 40 12 58 17 0 23 0 47 5 70 0 11 12 5 35-6 35-12 69-17 87-23 40-23 63-69 98-69 29 0 81 17 92 28 18 6 29 12 46 12s31-12 43-23c5 20 7 41 7 63v649c-63-26-115-36-159-36 0-6-12-12 0-18 17-11 23-17 29-23 17-23 28-46 34-69 18-35 35-23 46-98-17 0-23 11-40 17 6-17 12-35 12-52 5-35 17-58 17-98 17-6 46-23 52-46 0-6 0-24 6-47 0-34 6-63-6-86 0-6-41-64-69-81-41-17-58-12-87-6-35 0-81 35-81 98-35 0-104 6-144 41-35-18-64-23-93-29h-52c-6-23-17-46-40-64-29-17-64-40-104-40-18 0-35-6-52 6-17 11-46 23-52 46-12 29-23 52-23 81s17 52 34 81c6 11 12 11 24 17 5 0 29 11 34 17 6 6-5 23-5 58 0 29 0 29 5 52 0 23 6 46 12 64-17 0-29-18-41-6 0 11 12 40 24 63 28 29 57 58 75 93 0 6 0 17 5 17-40 6-80 6-121 17-35 12-75 29-110 47 0 23 6 40 6 40 6 0 58-29 104-40 75-24 116-18 116-18 5 12 11 29 5 35-69 29-138 63-202 104 6 12 0 29 12 40 57-34 138-75 196-98 23-6 23 0 35 0 5 6 17 29 29 29 17 0 34-17 52-23 34-12 63-23 98-29 11-6 11-17 11-29 6-11 6-11 6-29 0-6-23-11-35-34-11-18 0-35-5-35-18 12-41 23-47 0-5-18-5-41 12-46 58-23 121-23 179 0 12 0 17 11 17 23 6 11 0 23-11 35-18 5-35-18-35 0 0 17-11 40-40 51-6 6 0 24 6 41 0 6 0 17 5 17 23 6 58 12 75 23 23 12 64 46 70 41 17-12 23-29 34-41 59 27 107 44 177 87v41zm-96-133c-23-6-34-18-57-24v-46c32 10 90 15 153 41v80l-96-51zM1174 0H324A324 324 0 000 324v850c0 178 145 324 324 324h850c178 0 324-146 324-324V324c0-179-146-324-324-324z" fill="#fff" fill-rule="nonzero"/></svg>