<svg viewBox="0 0 1418 1418" xmlns="http://www.w3.org/2000/svg" fill-rule="evenodd" clip-rule="evenodd" stroke-linejoin="round" stroke-miterlimit="2"><path d="M1134 1417H283A283 283 0 010 1134V283C0 127 127 0 283 0h851c156 0 283 127 283 283v851c0 156-127 283-283 283z" fill="#f26a22" fill-rule="nonzero"/><path d="M1379 1231c-12-5-12-5-29-5-6-6-17-6-23-6 0 0 6 29 17 58 5 9 14 19 20 22 9-14 18-28 25-43-6-11-10-21-10-26zm-187 180l-10-41v-92c-23 5-28 11-34 11-18 12-29 17-29 29 0 23 6 46 6 58 0 17 0 29 5 35l21 6c14-1 28-3 41-6zm-368-122s-5-29-11-40c-6-12-12-23-29-35-6 0-17-11-23-6 0 0-6 47-12 52 12 18 23 29 29 46 6 18 12 41 23 58 6-23 23-34 23-75zm474 35c-11-12 12-52-17-52-12-6-46-17-46-17a166 166 0 0028 132l44-28c-7-18-9-32-9-35zm-40-503c23 0-29-23-52-40-6 0-12-6-12-6-12-11-17-35-40-40 0 0-6 0-6-6 0-17-6-87-6-87 12 23 35 23 46 23 23 0 41-5 52-23 0-6 6-17 12-17 11-6 23-12 29-23 6 0 11-12 11-12-52-6-162-6-162-6-17 6-34 24-34 29l11 70c0 40 6 40 6 81 17 11 23 11 35 23l17 34c23 12 52 23 70 41 5 0 23-29 23-41zm-35 104c-17-5-35-17-69-11-6 6-6 6-6 23 29 0 46 17 69 23 0 0 6-29 6-35zm-121-427c11 0 11 23 11 35 29 0 58 5 69-6 64-29-34-52-46-52-29-6-86-23-63 0 0 11 17 11 29 23zm121-75c40 11 69 35 98 69 17 0 35-11 41-29 5-29 11-75-6-98-12-12-18-17-46-23-23-6-47 0-64 17-11 18-29 41-23 64zm-243 52c0-12-23-6-34 0-12 0-29 11-47 23-17 17-28 23-28 40h28c29 0 35 12 47-5 17-24 34-35 34-58zm-34 138c0-11-12-23-29-29h-75c-29 0-52 0-81 6 11 23 40 46 52 58 11 12 23 23 46 23 23-6 23 0 35-6 0 12 5 29 0 41 0 6 5 52-18 58-17 5-40 17-52 34-11 18-17 46 0 58 12 6 23-12 41-17 17-6 17-18 23-35 11-12 34-17 40-29v-17c6-52 6-64 12-98l6-47zm-47 312c-11-5-23-5-34-5-18 0-41 5-41 5s6 23 12 35c17-6 23-12 35-17 0 0 23-12 28-18zM778 458c12-12 46-35 46-35 6 0 6-6 6-12-11-40-23-40-46-52-17-11-29-11-41-11-23 5-63 17-75 52 0 5-5 29 12 52 11 23 35 40 46 52 17 0 23-29 52-46zm480 438c44 0 96 11 159 37v38c-63-25-121-31-154-40v46c24 6 35 18 58 23l96 52v40c-70-43-118-59-177-86-11 12-17 29-34 41-6 5-47-29-70-41-17-11-52-17-75-23-6 0-6-11-6-17-5-18-11-35-5-41 29-11 40-34 40-52 0-17 17 6 35 0 11-11 17-23 11-34 0-12-6-23-17-23-58-24-121-24-179 0-18 5-18 28-12 46 6 23 29 11 47 0 5 0-6 17 5 34 12 24 35 29 35 35 0 17 0 17-6 29 0 12 0 23-11 29-35 6-64 17-99 29-17 5-34 23-52 23-11 0-23-23-28-29-12 0-12-6-35 0-58 23-139 63-196 98-12-12-6-29-12-40 64-41 133-75 202-104 6-6 0-23-6-35 0 0-40-6-115 17-46 12-98 41-104 41 0 0-6-17-6-41 35-17 75-34 110-46 40-11 81-11 121-17-6 0-6-12-6-18-17-34-46-63-75-92-11-23-23-52-23-63 12-12 23 5 41 5-6-17-12-40-12-63-6-23-6-23-6-52 0-35 12-52 6-58s-29-17-35-17c-11-6-17-6-23-18-17-28-34-51-34-80s11-52 23-81c6-23 34-35 52-47 17-11 34-5 52-5 40 0 75 23 104 40 23 17 34 41 40 64h52c29 5 58 11 93 29 40-35 109-41 144-41 0-63 46-98 81-98 29-6 46-12 86 6 29 17 70 75 70 81 11 23 5 52 5 86-5 23-5 41-5 46-6 24-35 41-52 47 0 40-12 63-18 98 0 17-5 35-11 52 17-6 23-17 40-17-11 75-29 63-46 98-6 23-17 46-34 69-6 6-12 11-29 23-12 6 0 12 0 17zm-307 445c-5-11-17-17-29-17-11 0-40-18-40-6-29 0-6 29-6 46 0 13 17 35 33 53h53c-2-9-5-17-5-24-6-17 0-34-6-52zm-98-260c6 23 12 41 23 64 6 0 12 11 18 11 11-11 23-28 40-34v23c0 17 0 29 6 46 0 17 17 17 40 17s29-40 29-46c0 0 6 23 41 41 0 0 40 0 40-6 6-29 12-35 6-58 0 0 34 23 52 46 11-11 23-34 23-40 11-23 11-52 11-75-46-29-103-35-161-35-52 0-110 6-168 46zm220 220c-23 5-70 11-70 29-5 17 0 34 0 46a86 86 0 016 41h44c10-14 20-25 26-41 5-17 0-46-6-75zM489 365c-11 17-11 35-11 52 0 29 6 52 11 87-23 17-34 29-57 40 5 35 11 98 11 98 12-17 12-17 23-29 23-17 35-29 64-52 6-11 11-5 29-17 5-6 11-11 11-17 0-12-6-23-11-35-6-11-18-40-18-46 0-46 6-58 12-98-23-6-52-6-64 17zm81 393c-58 17-98 29-110 40-28 18-40 29-69 46 0 35 0 35 6 52l6 70c11-18 46-52 63-75 12-12 35-41 93-70 5-23 11-40 11-63zm-110 548s18-11 18-23c29-34 63-63 69-69-11-29-17-34-35-52-5 6-34 23-40 35-12 6-23 11-29 17 0 12 6 17 12 29 0 12 5 40 5 63zm220-121c-6-11-23-17-35-23-11 0-23 23-23 46 0 12 6 52 12 70 0 5 11 11 23 17 17 11 34 17 52 29 0 0-18-52-23-81-6-17 5-40-6-58zm58-999c5 12 75 52 104 69 23 18 46 23 69 35 11-17 23-35 35-75 17 11 40 11 57 17 0 23 0 46 6 69 0 12 12 6 35-5 35-12 69-18 86-23 41-23 64-70 99-70 29 0 81 18 92 29 17 6 29 12 46 12s31-12 43-23l-7-26c-46-30-96-58-145-78-35 28-58 52-76 52-17 0-5-35-5-58-18 0-29 0-47-6-11 40-17 93-46 104-11 6-17 6-23 6v-46c0-6 23-47 18-52 0 0-52 11-64 17-6 6-40 23-46 23 0 0-18-6-23-6-18-11-29-11-47-23-23 70-28 87-28 75 0 0-81-52-110-86-75 11-75 23-139 46-23 23-58 52-81 87-11 23-23 34-34 57l57 23c6-5 35-46 41-57 40-23 110-64 133-87zM408 989v29c0 11 6 75 6 92 6 18 6 35 12 52 6 12 11 23 11 35 0 0 12-6 18-17 17-18 23-35 34-58-5-41-17-75-17-87 0-46 6-58 12-87l-76 41zm168-318c0-35 12-35 6-46-6-12-52 0-64 0-29 6-81 23-81 35-5 17-5 57-5 63 5 17 5 35 11 52 17-17 23-23 35-29 6-6 69-52 75-57 11-12 17-6 23-18zm-46 734l-16 12h-22c-11-30-22-56-37-82 0 0 86-34 109-34 6 11 12 29 24 40-12 12-47 46-58 64z" fill="#fff" fill-rule="nonzero"/></svg>