<svg xmlns="http://www.w3.org/2000/svg"
  xmlns:xlink="http://www.w3.org/1999/xlink" id="Layer_1" data-name="Layer 1" viewBox="0 0 954.85 281.43">
  <defs>
    <style>
      .cls-1 {
        fill: none;
      }
      .cls-2 {
        fill: var(--canvas-secondary);
      }
      .cls-3 {
        fill: var(--text-primary);
      }
      .cls-4 {
        clip-path: url(#clip-path);
      }
    </style>
    <clipPath id="clip-path">
      <path class="cls-1" d="M535.14,142.65h-142c-1-1,0,2,0,0v-77a8.06,8.06,0,0,1,8-8H528.1a8.05,8.05,0,0,1,8,8v76C536.14,146.07,537.14,142.65,535.14,142.65Z" />
    </clipPath>
  </defs>
  <path id="Shape_812" data-name="Shape 812" class="cls-2" d="M920.75,69.29a1.84,1.84,0,1,0,1.84,1.83,1.83,1.83,0,0,0-1.84-1.83" />
  <path class="cls-3" d="M920.75,76.46a5.34,5.34,0,1,1,5.34-5.34A5.35,5.35,0,0,1,920.75,76.46Zm0-7a1.67,1.67,0,1,0,1.66,1.66A1.66,1.66,0,0,0,920.75,69.46Z" />
  <path id="Shape_813" data-name="Shape 813" class="cls-2" d="M904.2,69.29A1.84,1.84,0,1,0,906,71.12a1.84,1.84,0,0,0-1.84-1.83" />
  <path class="cls-3" d="M904.2,76.46a5.34,5.34,0,1,1,5.34-5.34A5.35,5.35,0,0,1,904.2,76.46Zm0-7a1.67,1.67,0,1,0,1.66,1.66A1.67,1.67,0,0,0,904.2,69.46Z" />
  <path class="cls-3" d="M5.8,17.31h9.25v2h-7v3.36h6.48v1.84H8.05v3.76h7.12v1.94H5.8Z" />
  <path class="cls-3" d="M19.35,25.27l-3.22-4.41h2.48l1.95,2.86,2-2.86H25l-3.17,4.3,3.56,5H22.9l-2.36-3.43-2.29,3.43H15.84Z" />
  <path class="cls-3" d="M25.58,20.86h1.55V18.07h2.05v2.79H31v1.53H29.18v5c0,.21,0,.4,0,.55a.94.94,0,0,0,.13.4.6.6,0,0,0,.3.24,1.34,1.34,0,0,0,.54.08h.43a1.59,1.59,0,0,0,.43-.06v1.59l-.66.07c-.22,0-.44,0-.67,0a4.67,4.67,0,0,1-1.31-.15,1.71,1.71,0,0,1-.77-.45,1.57,1.57,0,0,1-.38-.75,6,6,0,0,1-.11-1V22.39H25.58Z" />
  <path class="cls-3" d="M34.11,26a3.7,3.7,0,0,0,.15,1.05,2.64,2.64,0,0,0,.46.88,2.23,2.23,0,0,0,.78.6,2.53,2.53,0,0,0,1.11.23,2.46,2.46,0,0,0,1.45-.39,2.3,2.3,0,0,0,.82-1.16h1.94a3.84,3.84,0,0,1-.55,1.35,4,4,0,0,1-2.21,1.61,5.28,5.28,0,0,1-3.39-.15,4,4,0,0,1-1.43-1,4.31,4.31,0,0,1-.89-1.55,6.53,6.53,0,0,1-.29-2,5.58,5.58,0,0,1,.31-1.88,4.77,4.77,0,0,1,.9-1.57,4.22,4.22,0,0,1,3.29-1.46,4.23,4.23,0,0,1,2,.45A4.52,4.52,0,0,1,40,22.28,4.84,4.84,0,0,1,40.81,24,5.26,5.26,0,0,1,41,26Zm4.79-1.35a3.69,3.69,0,0,0-.21-.93,2.4,2.4,0,0,0-.47-.79,2.43,2.43,0,0,0-.72-.54,2.2,2.2,0,0,0-.94-.2,2.55,2.55,0,0,0-1,.18,2.31,2.31,0,0,0-.76.53,2.43,2.43,0,0,0-.5.78,2.59,2.59,0,0,0-.21,1Z" />
  <path class="cls-3" d="M42.52,20.86h1.92v1.8h0a2,2,0,0,1,.35-.74,3.26,3.26,0,0,1,.63-.66,3,3,0,0,1,.82-.47,2.43,2.43,0,0,1,.92-.18h.49l.28,0v2l-.44-.06-.44,0a2.3,2.3,0,0,0-1,.21,2.06,2.06,0,0,0-.8.61,2.9,2.9,0,0,0-.54,1,4.08,4.08,0,0,0-.2,1.37v4.42h-2Z" />
  <path class="cls-3" d="M49.18,20.86h1.94v1.37l0,0a3.45,3.45,0,0,1,1.22-1.21,3.18,3.18,0,0,1,1.67-.44,3.49,3.49,0,0,1,2.42.79,3.06,3.06,0,0,1,.88,2.37v6.39H55.3V24.31a2.55,2.55,0,0,0-.47-1.59,1.7,1.7,0,0,0-1.35-.49,2.35,2.35,0,0,0-.94.18,2.16,2.16,0,0,0-.7.53,2.49,2.49,0,0,0-.45.78,2.75,2.75,0,0,0-.16,1v5.49h-2Z" />
  <path class="cls-3" d="M67.3,28.09a1,1,0,0,0,.1.54.43.43,0,0,0,.39.17H68a1.67,1.67,0,0,0,.29,0v1.42l-.28.08-.35.08a2.25,2.25,0,0,1-.36.06l-.3,0a2,2,0,0,1-1-.26,1.27,1.27,0,0,1-.54-.88,3.62,3.62,0,0,1-1.5.87,6,6,0,0,1-1.72.27A4.07,4.07,0,0,1,61,30.24a3.08,3.08,0,0,1-1-.5,2.36,2.36,0,0,1-.71-.85A2.64,2.64,0,0,1,59,27.7a2.78,2.78,0,0,1,.32-1.41,2.23,2.23,0,0,1,.83-.84A3.53,3.53,0,0,1,61.3,25q.63-.14,1.29-.21c.37-.07.72-.12,1.06-.15a4.43,4.43,0,0,0,.89-.16,1.32,1.32,0,0,0,.61-.33.91.91,0,0,0,.23-.67,1.09,1.09,0,0,0-.19-.65,1.35,1.35,0,0,0-.47-.39,2,2,0,0,0-.62-.18,5,5,0,0,0-.65,0,2.56,2.56,0,0,0-1.42.36,1.38,1.38,0,0,0-.63,1.11h-2a3,3,0,0,1,.43-1.49,2.94,2.94,0,0,1,1-1,4,4,0,0,1,1.32-.5,7.68,7.68,0,0,1,1.52-.14,6.19,6.19,0,0,1,1.35.14,3.8,3.8,0,0,1,1.19.47,2.47,2.47,0,0,1,.86.84,2.32,2.32,0,0,1,.32,1.25Zm-2-2.59a2.41,2.41,0,0,1-1.15.37c-.46,0-.91.11-1.37.19a5.81,5.81,0,0,0-.63.15,2.1,2.1,0,0,0-.54.27,1.24,1.24,0,0,0-.37.45,1.56,1.56,0,0,0-.13.68.84.84,0,0,0,.19.57,1.44,1.44,0,0,0,.48.37,2.07,2.07,0,0,0,.61.19,3.49,3.49,0,0,0,.61.06,3.3,3.3,0,0,0,.73-.09,2.48,2.48,0,0,0,.75-.31,2.06,2.06,0,0,0,.59-.55,1.42,1.42,0,0,0,.23-.82Z" />
  <path class="cls-3" d="M69.57,17.31h2.05V30.16H69.57Z" />
  <path class="cls-3" d="M86.65,28.09a1,1,0,0,0,.1.54.42.42,0,0,0,.39.17h.21a1.67,1.67,0,0,0,.29,0v1.42l-.28.08-.35.08a2.25,2.25,0,0,1-.36.06l-.31,0a2,2,0,0,1-1-.26,1.21,1.21,0,0,1-.54-.88,3.62,3.62,0,0,1-1.5.87,6,6,0,0,1-1.72.27,4.07,4.07,0,0,1-1.21-.18,3.08,3.08,0,0,1-1-.5,2.36,2.36,0,0,1-.71-.85,2.64,2.64,0,0,1-.26-1.19,2.78,2.78,0,0,1,.32-1.41,2.23,2.23,0,0,1,.83-.84A3.53,3.53,0,0,1,80.65,25q.63-.14,1.29-.21c.37-.07.72-.12,1.06-.15a4.43,4.43,0,0,0,.89-.16,1.32,1.32,0,0,0,.61-.33.91.91,0,0,0,.23-.67,1.09,1.09,0,0,0-.19-.65,1.35,1.35,0,0,0-.47-.39,2.12,2.12,0,0,0-.62-.18,5,5,0,0,0-.65,0,2.56,2.56,0,0,0-1.42.36,1.36,1.36,0,0,0-.63,1.11H78.69a3.12,3.12,0,0,1,.44-1.49,2.94,2.94,0,0,1,1-1,4,4,0,0,1,1.32-.5,7.58,7.58,0,0,1,1.51-.14,6.07,6.07,0,0,1,1.35.14,3.76,3.76,0,0,1,1.2.47,2.47,2.47,0,0,1,.86.84,2.32,2.32,0,0,1,.32,1.25ZM84.6,25.5a2.41,2.41,0,0,1-1.15.37c-.46,0-.92.11-1.37.19a5.81,5.81,0,0,0-.63.15,2,2,0,0,0-.54.27,1.24,1.24,0,0,0-.37.45,1.55,1.55,0,0,0-.14.68.84.84,0,0,0,.2.57,1.35,1.35,0,0,0,.48.37,2.07,2.07,0,0,0,.61.19,3.38,3.38,0,0,0,.6.06,3.32,3.32,0,0,0,.74-.09,2.48,2.48,0,0,0,.75-.31,1.9,1.9,0,0,0,.58-.55A1.35,1.35,0,0,0,84.6,27Z" />
  <path class="cls-3" d="M97,30.16H95V28.87h0A2.83,2.83,0,0,1,93.86,30a3.1,3.1,0,0,1-1.52.43,3.46,3.46,0,0,1-2.66-.91,4,4,0,0,1-.81-2.75v-5.9h2v5.7a2.47,2.47,0,0,0,.47,1.73,1.67,1.67,0,0,0,1.31.51,2.64,2.64,0,0,0,1.08-.2,1.88,1.88,0,0,0,.7-.53,2.06,2.06,0,0,0,.39-.8,4.11,4.11,0,0,0,.12-1v-5.4H97Z" />
  <path class="cls-3" d="M98.26,20.86h1.55V18.07h2v2.79h1.85v1.53h-1.85v5a4.33,4.33,0,0,0,0,.55,1.11,1.11,0,0,0,.12.4.6.6,0,0,0,.3.24,1.34,1.34,0,0,0,.54.08h.43a1.54,1.54,0,0,0,.43-.06v1.59l-.66.07c-.22,0-.44,0-.67,0a4.59,4.59,0,0,1-1.3-.15,1.75,1.75,0,0,1-.78-.45,1.56,1.56,0,0,1-.37-.75,5.1,5.1,0,0,1-.12-1V22.39H98.26Z" />
  <path class="cls-3" d="M105.19,17.31h2v4.77h0a3,3,0,0,1,1.12-1,3.37,3.37,0,0,1,1.67-.42,3.47,3.47,0,0,1,2.41.79,3,3,0,0,1,.88,2.37v6.39h-2V24.31a2.49,2.49,0,0,0-.47-1.59,1.7,1.7,0,0,0-1.35-.49,2.27,2.27,0,0,0-.93.18,2.2,2.2,0,0,0-.71.53,2.49,2.49,0,0,0-.45.78,3,3,0,0,0-.16,1v5.49h-2Z" />
  <path class="cls-3" d="M117.12,26a3.71,3.71,0,0,0,.16,1.05,2.47,2.47,0,0,0,.46.88,2.19,2.19,0,0,0,.77.6,2.54,2.54,0,0,0,1.12.23,2.46,2.46,0,0,0,1.45-.39,2.34,2.34,0,0,0,.81-1.16h2a4.06,4.06,0,0,1-.56,1.35,3.94,3.94,0,0,1-1,1,4.27,4.27,0,0,1-1.25.61,5,5,0,0,1-1.45.21,5,5,0,0,1-1.95-.36,4.08,4.08,0,0,1-1.43-1,4.29,4.29,0,0,1-.88-1.55,6.23,6.23,0,0,1-.3-2,5.58,5.58,0,0,1,.32-1.88,4.77,4.77,0,0,1,.9-1.57A4.39,4.39,0,0,1,117.7,21a4.34,4.34,0,0,1,1.87-.39,4.23,4.23,0,0,1,2,.45A4.32,4.32,0,0,1,123,22.28a4.7,4.7,0,0,1,.84,1.74,5.26,5.26,0,0,1,.13,2Zm4.79-1.35a3.29,3.29,0,0,0-.2-.93,2.59,2.59,0,0,0-.47-.79,2.43,2.43,0,0,0-.72-.54,2.24,2.24,0,0,0-1-.2,2.59,2.59,0,0,0-1,.18,2.37,2.37,0,0,0-.75.53,2.63,2.63,0,0,0-.51.78,3.05,3.05,0,0,0-.21,1Z" />
  <path class="cls-3" d="M125.53,20.86h1.94v1.37l0,0a3.45,3.45,0,0,1,1.22-1.21,3.24,3.24,0,0,1,1.68-.44,3.47,3.47,0,0,1,2.41.79,3,3,0,0,1,.88,2.37v6.39h-2V24.31a2.49,2.49,0,0,0-.47-1.59,1.7,1.7,0,0,0-1.35-.49,2.27,2.27,0,0,0-.93.18,2.2,2.2,0,0,0-.71.53,2.49,2.49,0,0,0-.45.78,3,3,0,0,0-.16,1v5.49h-2Z" />
  <path class="cls-3" d="M134.93,20.86h1.54V18.07h2.06v2.79h1.85v1.53h-1.85v5c0,.21,0,.4,0,.55a.94.94,0,0,0,.13.4.56.56,0,0,0,.3.24,1.34,1.34,0,0,0,.54.08H140a1.59,1.59,0,0,0,.43-.06v1.59l-.67.07q-.32,0-.66,0a4.67,4.67,0,0,1-1.31-.15,1.71,1.71,0,0,1-.77-.45,1.57,1.57,0,0,1-.38-.75,6,6,0,0,1-.12-1V22.39h-1.54Z" />
  <path class="cls-3" d="M141.91,17.31H144v2h-2.05Zm0,3.55H144v9.3h-2.05Z" />
  <path class="cls-3" d="M152.48,24a1.94,1.94,0,0,0-.7-1.3,2.2,2.2,0,0,0-1.43-.44,2.92,2.92,0,0,0-.84.13,2.06,2.06,0,0,0-.83.5,2.92,2.92,0,0,0-.63,1,4.85,4.85,0,0,0-.25,1.72,5,5,0,0,0,.13,1.15,3.29,3.29,0,0,0,.43,1,2.44,2.44,0,0,0,.77.73,2.23,2.23,0,0,0,1.13.28,2.09,2.09,0,0,0,1.49-.56,2.63,2.63,0,0,0,.73-1.57h2.05a4.48,4.48,0,0,1-1.38,2.78,4.16,4.16,0,0,1-2.89,1,4.85,4.85,0,0,1-1.93-.37,4.17,4.17,0,0,1-1.42-1,4.38,4.38,0,0,1-.87-1.52,5.93,5.93,0,0,1-.3-1.91,6.54,6.54,0,0,1,.29-2,4.31,4.31,0,0,1,.87-1.59A3.93,3.93,0,0,1,148.33,21a4.79,4.79,0,0,1,2-.38,5.91,5.91,0,0,1,1.54.2,4.23,4.23,0,0,1,1.3.62,3.36,3.36,0,0,1,.93,1.05,3.61,3.61,0,0,1,.43,1.49Z" />
  <path class="cls-3" d="M164,28.09a1,1,0,0,0,.1.54.4.4,0,0,0,.38.17h.22a1.81,1.81,0,0,0,.29,0v1.42l-.28.08-.35.08a2.25,2.25,0,0,1-.36.06l-.31,0a1.93,1.93,0,0,1-1-.26,1.21,1.21,0,0,1-.54-.88,3.6,3.6,0,0,1-1.51.87,5.86,5.86,0,0,1-1.72.27,4,4,0,0,1-1.2-.18,3.13,3.13,0,0,1-1-.5,2.34,2.34,0,0,1-.7-.85,2.64,2.64,0,0,1-.26-1.19,2.78,2.78,0,0,1,.31-1.41,2.31,2.31,0,0,1,.83-.84A3.62,3.62,0,0,1,158,25q.64-.14,1.29-.21c.37-.07.73-.12,1.06-.15a4.18,4.18,0,0,0,.89-.16,1.42,1.42,0,0,0,.62-.33.9.9,0,0,0,.22-.67,1,1,0,0,0-.19-.65,1.26,1.26,0,0,0-.47-.39,2,2,0,0,0-.62-.18,4.93,4.93,0,0,0-.65,0,2.58,2.58,0,0,0-1.42.36,1.41,1.41,0,0,0-.63,1.11H156a3.12,3.12,0,0,1,.43-1.49,2.87,2.87,0,0,1,1-1,3.94,3.94,0,0,1,1.32-.5,7.51,7.51,0,0,1,1.51-.14,6.07,6.07,0,0,1,1.35.14,4,4,0,0,1,1.2.47,2.44,2.44,0,0,1,.85.84,2.24,2.24,0,0,1,.33,1.25Zm-2.06-2.59a2.37,2.37,0,0,1-1.15.37c-.45,0-.91.11-1.37.19l-.63.15a2.27,2.27,0,0,0-.54.27,1.33,1.33,0,0,0-.36.45,1.42,1.42,0,0,0-.14.68.84.84,0,0,0,.2.57,1.35,1.35,0,0,0,.48.37,1.9,1.9,0,0,0,.61.19,3.06,3.06,0,0,0,1.34,0,2.53,2.53,0,0,0,.74-.31,1.94,1.94,0,0,0,.59-.55,1.35,1.35,0,0,0,.23-.82Z" />
  <path class="cls-3" d="M165.27,20.86h1.55V18.07h2.05v2.79h1.86v1.53h-1.86v5a4.33,4.33,0,0,0,0,.55.94.94,0,0,0,.13.4.54.54,0,0,0,.29.24,1.4,1.4,0,0,0,.54.08h.44a1.65,1.65,0,0,0,.43-.06v1.59l-.67.07c-.21,0-.44,0-.66,0a4.67,4.67,0,0,1-1.31-.15,1.66,1.66,0,0,1-.77-.45,1.57,1.57,0,0,1-.38-.75,5.1,5.1,0,0,1-.12-1V22.39h-1.55Z" />
  <path class="cls-3" d="M176.47,30.42a5.19,5.19,0,0,1-2-.37A4.45,4.45,0,0,1,173,29a4.35,4.35,0,0,1-.91-1.55,6,6,0,0,1-.32-2,5.88,5.88,0,0,1,.32-2A4.35,4.35,0,0,1,173,22a4.28,4.28,0,0,1,1.48-1,5.54,5.54,0,0,1,4,0,4.28,4.28,0,0,1,1.48,1,4.35,4.35,0,0,1,.91,1.55,5.88,5.88,0,0,1,.32,2,6,6,0,0,1-.32,2,4.35,4.35,0,0,1-.91,1.55,4.45,4.45,0,0,1-1.48,1A5.19,5.19,0,0,1,176.47,30.42Zm0-1.62a2.38,2.38,0,0,0,1.19-.29,2.62,2.62,0,0,0,.83-.76A3.34,3.34,0,0,0,179,26.7a4.82,4.82,0,0,0,.16-1.2,4.93,4.93,0,0,0-.16-1.19,3.34,3.34,0,0,0-.47-1,2.71,2.71,0,0,0-.83-.75,2.67,2.67,0,0,0-2.38,0,2.71,2.71,0,0,0-.83.75,3.34,3.34,0,0,0-.47,1,4.93,4.93,0,0,0-.16,1.19,4.82,4.82,0,0,0,.16,1.2,3.34,3.34,0,0,0,.47,1.05,2.62,2.62,0,0,0,.83.76A2.38,2.38,0,0,0,176.47,28.8Z" />
  <path class="cls-3" d="M182.88,20.86h1.92v1.8h0a2.17,2.17,0,0,1,.35-.74,3.26,3.26,0,0,1,.63-.66,3.18,3.18,0,0,1,.82-.47,2.47,2.47,0,0,1,.92-.18h.49l.28,0v2l-.44-.06-.44,0a2.3,2.3,0,0,0-1,.21,2.14,2.14,0,0,0-.8.61,2.9,2.9,0,0,0-.54,1,4.35,4.35,0,0,0-.2,1.37v4.42h-2.05Z" />
  <path class="cls-3" d="M820.21,17.31h6.13a4.78,4.78,0,0,1,3.19.92,3.19,3.19,0,0,1,1.06,2.56,3.76,3.76,0,0,1-.27,1.52,3.39,3.39,0,0,1-.63,1,2.67,2.67,0,0,1-.71.53c-.23.11-.4.18-.51.22v0a2.82,2.82,0,0,1,.62.18,1.89,1.89,0,0,1,.62.46,2.57,2.57,0,0,1,.48.82,3.8,3.8,0,0,1,.19,1.26,10.86,10.86,0,0,0,.17,2.06,2.64,2.64,0,0,0,.53,1.32h-2.41a2,2,0,0,1-.3-.91c0-.34,0-.66,0-1a9.67,9.67,0,0,0-.1-1.52,2.83,2.83,0,0,0-.4-1.06,1.66,1.66,0,0,0-.78-.62,3.52,3.52,0,0,0-1.27-.2h-3.31v5.29h-2.25Zm2.25,5.85h3.69a2.32,2.32,0,0,0,1.63-.51,2,2,0,0,0,.56-1.54,2.39,2.39,0,0,0-.18-1,1.4,1.4,0,0,0-.49-.6,1.76,1.76,0,0,0-.72-.29,4.61,4.61,0,0,0-.84-.07h-3.65Z" />
  <path class="cls-3" d="M834.19,26a3.7,3.7,0,0,0,.15,1.05,2.83,2.83,0,0,0,.46.88,2.33,2.33,0,0,0,.78.6,2.53,2.53,0,0,0,1.11.23,2.44,2.44,0,0,0,1.45-.39,2.3,2.3,0,0,0,.82-1.16h1.95a4.06,4.06,0,0,1-.56,1.35,4,4,0,0,1-1,1,4.15,4.15,0,0,1-1.25.61,5.28,5.28,0,0,1-3.39-.15,4.08,4.08,0,0,1-1.43-1,4.15,4.15,0,0,1-.88-1.55,6.23,6.23,0,0,1-.3-2,5.58,5.58,0,0,1,.31-1.88,4.77,4.77,0,0,1,.9-1.57A4.43,4.43,0,0,1,834.77,21a4.31,4.31,0,0,1,1.87-.39,4.23,4.23,0,0,1,2,.45,4.42,4.42,0,0,1,1.45,1.22A5,5,0,0,1,840.9,24a5.26,5.26,0,0,1,.13,2ZM839,24.69a3,3,0,0,0-.21-.93,2.4,2.4,0,0,0-.47-.79,2.16,2.16,0,0,0-1.66-.74,2.55,2.55,0,0,0-1,.18,2.31,2.31,0,0,0-.76.53,2.43,2.43,0,0,0-.5.78,2.59,2.59,0,0,0-.21,1Z" />
  <path class="cls-3" d="M842.65,17.31h2.05V30.16h-2.05Z" />
  <path class="cls-3" d="M845.91,20.86h2.25l2.43,7h0L853,20.86h2.15l-3.62,9.81c-.17.42-.34.82-.5,1.2a4.2,4.2,0,0,1-.59,1,2.69,2.69,0,0,1-.87.7,2.94,2.94,0,0,1-1.34.26,9.59,9.59,0,0,1-1.42-.1V32l.49.08a2.52,2.52,0,0,0,.48,0,1.72,1.72,0,0,0,.6-.09,1,1,0,0,0,.39-.26,2,2,0,0,0,.26-.4,4.8,4.8,0,0,0,.19-.54l.24-.72Z" />
  <path class="cls-3" d="M856.33,17.31h2v2h-2Zm0,3.55h2v9.3h-2Z" />
  <path class="cls-3" d="M860.62,20.86h1.94v1.37l0,0a3.45,3.45,0,0,1,1.22-1.21,3.18,3.18,0,0,1,1.67-.44,3.49,3.49,0,0,1,2.42.79,3.06,3.06,0,0,1,.88,2.37v6.39h-2V24.31a2.55,2.55,0,0,0-.47-1.59,1.7,1.7,0,0,0-1.35-.49,2.35,2.35,0,0,0-.94.18,2.16,2.16,0,0,0-.7.53,2.49,2.49,0,0,0-.45.78,2.75,2.75,0,0,0-.16,1v5.49h-2Z" />
  <path class="cls-3" d="M879.55,29.68a4,4,0,0,1-1.18,3.14,5,5,0,0,1-3.39,1,6.74,6.74,0,0,1-1.41-.14,4.22,4.22,0,0,1-1.3-.49,2.91,2.91,0,0,1-1-.9,2.76,2.76,0,0,1-.47-1.36h2a1.73,1.73,0,0,0,.31.7,1.48,1.48,0,0,0,.51.42,2,2,0,0,0,.66.2,6.12,6.12,0,0,0,.76,0,2.37,2.37,0,0,0,1.81-.61A2.44,2.44,0,0,0,877.5,30V28.53h0a3.18,3.18,0,0,1-2.79,1.63,4.41,4.41,0,0,1-1.9-.38,3.63,3.63,0,0,1-1.29-1.07,4.39,4.39,0,0,1-.75-1.55,7.65,7.65,0,0,1-.23-1.89,5.23,5.23,0,0,1,.29-1.78,4.49,4.49,0,0,1,.82-1.49,4,4,0,0,1,1.33-1,4,4,0,0,1,1.77-.37,3.51,3.51,0,0,1,1.62.37,2.45,2.45,0,0,1,1.13,1.16h0V20.86h2ZM875,28.54a2.34,2.34,0,0,0,1.16-.27,2.37,2.37,0,0,0,.77-.74,3.27,3.27,0,0,0,.43-1.05,5.21,5.21,0,0,0,.14-1.18,4.89,4.89,0,0,0-.14-1.15,3.2,3.2,0,0,0-.45-1,2,2,0,0,0-.77-.68,2.4,2.4,0,0,0-1.14-.25,2.15,2.15,0,0,0-1.15.28,2.27,2.27,0,0,0-.76.75,3.16,3.16,0,0,0-.41,1,5,5,0,0,0-.13,1.16,4.64,4.64,0,0,0,.14,1.12,3.37,3.37,0,0,0,.44,1,2.32,2.32,0,0,0,.76.7A2.17,2.17,0,0,0,875,28.54Z" />
  <path class="cls-3" d="M886.68,20.86h1.94v1.26h0A2.52,2.52,0,0,1,889.87,21a3.88,3.88,0,0,1,1.67-.35,4.45,4.45,0,0,1,1.92.38,3.77,3.77,0,0,1,1.36,1.07,4.48,4.48,0,0,1,.8,1.57,6.67,6.67,0,0,1,.28,1.93,6.82,6.82,0,0,1-.25,1.81,4.69,4.69,0,0,1-.74,1.56A3.63,3.63,0,0,1,893.66,30a3.69,3.69,0,0,1-1.78.41,4.58,4.58,0,0,1-.9-.09,3.57,3.57,0,0,1-.86-.26,3.34,3.34,0,0,1-.77-.46,2.4,2.4,0,0,1-.58-.65h0V33.6h-2.05Zm7.16,4.66a4.49,4.49,0,0,0-.16-1.22,3.54,3.54,0,0,0-.48-1.06,2.65,2.65,0,0,0-.82-.74,2.23,2.23,0,0,0-1.11-.27,2.25,2.25,0,0,0-1.95.9,3.94,3.94,0,0,0-.66,2.39,4.87,4.87,0,0,0,.17,1.3,3,3,0,0,0,.51,1,2.43,2.43,0,0,0,.82.68,2.54,2.54,0,0,0,2.3,0,2.49,2.49,0,0,0,.8-.75,3,3,0,0,0,.45-1A5.32,5.32,0,0,0,893.84,25.52Z" />
  <path class="cls-3" d="M905.42,28.09a1,1,0,0,0,.1.54.4.4,0,0,0,.38.17h.22a1.81,1.81,0,0,0,.29,0v1.42l-.28.08-.35.08a2.25,2.25,0,0,1-.36.06l-.31,0a1.93,1.93,0,0,1-1-.26,1.21,1.21,0,0,1-.54-.88,3.6,3.6,0,0,1-1.51.87,5.86,5.86,0,0,1-1.72.27,4,4,0,0,1-1.2-.18,3.13,3.13,0,0,1-1-.5,2.34,2.34,0,0,1-.7-.85,2.64,2.64,0,0,1-.26-1.19,2.78,2.78,0,0,1,.31-1.41,2.31,2.31,0,0,1,.83-.84,3.62,3.62,0,0,1,1.15-.44q.65-.14,1.29-.21c.37-.07.73-.12,1.06-.15a4.18,4.18,0,0,0,.89-.16,1.36,1.36,0,0,0,.62-.33.9.9,0,0,0,.22-.67,1,1,0,0,0-.19-.65,1.19,1.19,0,0,0-.47-.39,2,2,0,0,0-.62-.18,4.93,4.93,0,0,0-.65,0,2.58,2.58,0,0,0-1.42.36,1.41,1.41,0,0,0-.63,1.11h-2a3.12,3.12,0,0,1,.43-1.49,3,3,0,0,1,1-1,4,4,0,0,1,1.32-.5,7.51,7.51,0,0,1,1.51-.14,6.07,6.07,0,0,1,1.35.14,4,4,0,0,1,1.2.47,2.44,2.44,0,0,1,.85.84,2.24,2.24,0,0,1,.33,1.25Zm-2.06-2.59a2.37,2.37,0,0,1-1.15.37c-.45,0-.91.11-1.37.19q-.32.06-.63.15a2.27,2.27,0,0,0-.54.27,1.33,1.33,0,0,0-.36.45,1.55,1.55,0,0,0-.14.68.84.84,0,0,0,.2.57,1.35,1.35,0,0,0,.48.37,2,2,0,0,0,.61.19,3.06,3.06,0,0,0,1.34,0,2.71,2.71,0,0,0,.75-.31,2,2,0,0,0,.58-.55,1.35,1.35,0,0,0,.23-.82Z" />
  <path class="cls-3" d="M907.63,20.86h1.93v1.8h0a2.17,2.17,0,0,1,.35-.74,3.92,3.92,0,0,1,.63-.66,3.18,3.18,0,0,1,.82-.47,2.47,2.47,0,0,1,.92-.18h.5l.27,0v2l-.44-.06a3.25,3.25,0,0,0-.44,0,2.33,2.33,0,0,0-1,.21,2.22,2.22,0,0,0-.8.61,2.9,2.9,0,0,0-.54,1,4.35,4.35,0,0,0-.2,1.37v4.42h-2Z" />
  <path class="cls-3" d="M913,20.86h1.55V18.07h2v2.79h1.85v1.53h-1.85v5a4.33,4.33,0,0,0,0,.55,1.11,1.11,0,0,0,.12.4.6.6,0,0,0,.3.24,1.34,1.34,0,0,0,.54.08h.43a1.54,1.54,0,0,0,.43-.06v1.59l-.66.07c-.22,0-.44,0-.67,0a4.59,4.59,0,0,1-1.3-.15,1.75,1.75,0,0,1-.78-.45,1.56,1.56,0,0,1-.37-.75,5.1,5.1,0,0,1-.12-1V22.39H913Z" />
  <path class="cls-3" d="M918.93,20.86h2.25l2.43,7h0L926,20.86h2.14l-3.62,9.81c-.17.42-.33.82-.49,1.2a3.92,3.92,0,0,1-.6,1,2.49,2.49,0,0,1-.87.7,2.89,2.89,0,0,1-1.33.26,9.5,9.5,0,0,1-1.42-.1V32l.48.08a2.63,2.63,0,0,0,.49,0,1.63,1.63,0,0,0,.59-.09.9.9,0,0,0,.39-.26,1.62,1.62,0,0,0,.26-.4,4.75,4.75,0,0,0,.2-.54l.23-.72Z" />
  <path class="cls-3" d="M120.72,185.65H69.86a14.43,14.43,0,0,1-14.44-14.38V58.09A14.43,14.43,0,0,1,69.86,43.72h50.86a14.42,14.42,0,0,1,14.44,14.37V171.27A14.42,14.42,0,0,1,120.72,185.65ZM69.86,50.72a7.41,7.41,0,0,0-7.44,7.37V171.27a7.42,7.42,0,0,0,7.44,7.38h50.86a7.41,7.41,0,0,0,7.44-7.38V58.09a7.4,7.4,0,0,0-7.44-7.37Z" />
  <path class="cls-3" d="M117.58,226.72H73a3.5,3.5,0,0,1-3.5-3.5V191.54a3.5,3.5,0,1,1,7,0v28.18h37.58V191.54a3.5,3.5,0,0,1,7,0v31.68A3.5,3.5,0,0,1,117.58,226.72Z" />
  <path class="cls-3" d="M95.29,138.72c-12,0-21.69-9.47-21.69-21.1s9.73-21.1,21.69-21.1S117,106,117,117.62,107.25,138.72,95.29,138.72Zm0-35.2c-8.1,0-14.69,6.32-14.69,14.1s6.59,14.1,14.69,14.1S110,125.39,110,117.62,103.39,103.52,95.29,103.52Z" />
  <path class="cls-3" d="M101.74,211.46a3.5,3.5,0,0,1-3.5-3.5V197.4a3.5,3.5,0,0,1,7,0V208A3.5,3.5,0,0,1,101.74,211.46Zm-12.9,0a3.5,3.5,0,0,1-3.5-3.5V197.4a3.5,3.5,0,0,1,7,0V208A3.5,3.5,0,0,1,88.84,211.46Z" />
  <g id="Computers-Devices-Electronics_Desktop-Actions_monitor-upload" data-name="Computers-Devices-Electronics / Desktop-Actions / monitor-upload">
    <g id="Group_100" data-name="Group 100">
      <g id="monitor-upload">
        <path class="cls-3" d="M302.5,131.65h-36a3.5,3.5,0,0,1,0-7h36a3.5,3.5,0,0,1,0,7Z" />
        <path class="cls-3" d="M302.5,131.65a3.46,3.46,0,0,1-2.47-1l-13.5-13.5a3.5,3.5,0,0,1,5-5l13.5,13.5a3.51,3.51,0,0,1-2.48,6Z" />
        <path class="cls-3" d="M289,145.15a3.46,3.46,0,0,1-2.47-1,3.49,3.49,0,0,1,0-5l13.5-13.5a3.5,3.5,0,0,1,5,5l-13.5,13.5A3.48,3.48,0,0,1,289,145.15Z" />
      </g>
    </g>
  </g>
  <g id="Computers-Devices-Electronics_Desktop-Actions_monitor-upload-2" data-name="Computers-Devices-Electronics / Desktop-Actions / monitor-upload">
    <g id="Group_100-2" data-name="Group 100">
      <g id="monitor-upload-2" data-name="monitor-upload">
        <path class="cls-3" d="M269.33,131.65h-70a3.5,3.5,0,0,1,0-7h70a3.5,3.5,0,0,1,0,7Z" />
        <path class="cls-3" d="M212.83,145.15a3.48,3.48,0,0,1-2.48-1l-13.5-13.5a3.5,3.5,0,1,1,5-5l13.5,13.5a3.49,3.49,0,0,1,0,5A3.46,3.46,0,0,1,212.83,145.15Z" />
        <path class="cls-3" d="M199.33,131.65a3.51,3.51,0,0,1-2.48-6l13.5-13.5a3.5,3.5,0,0,1,5,5l-13.5,13.5A3.46,3.46,0,0,1,199.33,131.65Z" />
      </g>
    </g>
  </g>
  <g id="Computers-Devices-Electronics_Desktop-Actions_monitor-upload-3" data-name="Computers-Devices-Electronics / Desktop-Actions / monitor-upload">
    <g id="Group_100-3" data-name="Group 100">
      <g id="monitor-upload-3" data-name="monitor-upload">
        <path class="cls-3" d="M729.1,131.65h-36a3.5,3.5,0,0,1,0-7h36a3.5,3.5,0,0,1,0,7Z" />
        <path class="cls-3" d="M729.1,131.65a3.46,3.46,0,0,1-2.47-1l-13.5-13.5a3.5,3.5,0,0,1,5-5l13.5,13.5a3.51,3.51,0,0,1-2.48,6Z" />
        <path class="cls-3" d="M715.6,145.15a3.46,3.46,0,0,1-2.47-1,3.49,3.49,0,0,1,0-5l13.5-13.5a3.5,3.5,0,0,1,5,5l-13.5,13.5A3.48,3.48,0,0,1,715.6,145.15Z" />
      </g>
    </g>
  </g>
  <g id="Computers-Devices-Electronics_Desktop-Actions_monitor-upload-4" data-name="Computers-Devices-Electronics / Desktop-Actions / monitor-upload">
    <g id="Group_100-4" data-name="Group 100">
      <g id="monitor-upload-4" data-name="monitor-upload">
        <path class="cls-3" d="M695.93,131.65h-70a3.5,3.5,0,0,1,0-7h70a3.5,3.5,0,0,1,0,7Z" />
        <path class="cls-3" d="M639.43,145.15a3.48,3.48,0,0,1-2.48-1l-13.5-13.5a3.5,3.5,0,1,1,4.95-5l13.5,13.5a3.49,3.49,0,0,1,0,5A3.46,3.46,0,0,1,639.43,145.15Z" />
        <path class="cls-3" d="M625.93,131.65a3.51,3.51,0,0,1-2.48-6l13.5-13.5a3.5,3.5,0,0,1,4.95,5l-13.5,13.5A3.46,3.46,0,0,1,625.93,131.65Z" />
      </g>
    </g>
  </g>
  <path class="cls-3" d="M404.1,21.4a4.69,4.69,0,0,0-.4-1,2.83,2.83,0,0,0-.65-.81,2.88,2.88,0,0,0-.92-.53,3.63,3.63,0,0,0-1.24-.19,3.56,3.56,0,0,0-1.77.42,3.37,3.37,0,0,0-1.21,1.1,4.82,4.82,0,0,0-.7,1.58,7.47,7.47,0,0,0,0,3.6,4.77,4.77,0,0,0,.7,1.57,3.49,3.49,0,0,0,1.21,1.11,3.56,3.56,0,0,0,1.77.41,3.14,3.14,0,0,0,1.34-.26,2.94,2.94,0,0,0,1-.72,3.28,3.28,0,0,0,.64-1.07,5,5,0,0,0,.31-1.31h2.2a6.11,6.11,0,0,1-.5,2.1A5,5,0,0,1,403,30.09a6,6,0,0,1-2.15.38,6.1,6.1,0,0,1-2.58-.53,5.71,5.71,0,0,1-1.93-1.45,6.45,6.45,0,0,1-1.22-2.14,8,8,0,0,1-.42-2.61,7.9,7.9,0,0,1,.42-2.59A6.5,6.5,0,0,1,396.38,19a5.71,5.71,0,0,1,1.93-1.45,6,6,0,0,1,2.58-.54,6.8,6.8,0,0,1,2,.29,5.36,5.36,0,0,1,1.68.87,4.32,4.32,0,0,1,1.18,1.37,4.77,4.77,0,0,1,.56,1.86Z" />
  <path class="cls-3" d="M408.18,17.31h2.06V30.16h-2.06Z" />
  <path class="cls-3" d="M412.52,17.31h2.05v2h-2.05Zm0,3.55h2.05v9.3h-2.05Z" />
  <path class="cls-3" d="M418.41,26a3.7,3.7,0,0,0,.15,1.05A2.64,2.64,0,0,0,419,28a2.19,2.19,0,0,0,.77.6,2.6,2.6,0,0,0,1.12.23,2.46,2.46,0,0,0,1.45-.39,2.36,2.36,0,0,0,.82-1.16h1.94a3.86,3.86,0,0,1-.56,1.35,3.94,3.94,0,0,1-.95,1,4.15,4.15,0,0,1-1.25.61,5,5,0,0,1-1.45.21,4.9,4.9,0,0,1-1.94-.36,4,4,0,0,1-1.44-1,4.29,4.29,0,0,1-.88-1.55,6.23,6.23,0,0,1-.29-2,5.58,5.58,0,0,1,.31-1.88,4.77,4.77,0,0,1,.9-1.57,4.18,4.18,0,0,1,3.29-1.46,4.26,4.26,0,0,1,2,.45,4.52,4.52,0,0,1,1.45,1.22,4.84,4.84,0,0,1,.83,1.74,5.26,5.26,0,0,1,.14,2Zm4.79-1.35a3.69,3.69,0,0,0-.21-.93,2.59,2.59,0,0,0-.47-.79,2.43,2.43,0,0,0-.72-.54,2.09,2.09,0,0,0-.94-.2,2.64,2.64,0,0,0-1,.18,2.22,2.22,0,0,0-.75.53,2.63,2.63,0,0,0-.51.78,2.8,2.8,0,0,0-.2,1Z" />
  <path class="cls-3" d="M426.81,20.86h1.95v1.37l0,0A3.48,3.48,0,0,1,430,21.05a3.18,3.18,0,0,1,1.67-.44,3.45,3.45,0,0,1,2.41.79,3,3,0,0,1,.89,2.37v6.39h-2.06V24.31a2.55,2.55,0,0,0-.46-1.59,1.7,1.7,0,0,0-1.35-.49,2.35,2.35,0,0,0-.94.18,1.94,1.94,0,0,0-.7.53,2.49,2.49,0,0,0-.45.78,2.75,2.75,0,0,0-.16,1v5.49h-2.06Z" />
  <path class="cls-3" d="M436.21,20.86h1.55V18.07h2.05v2.79h1.85v1.53h-1.85v5a4.33,4.33,0,0,0,0,.55.94.94,0,0,0,.12.4.6.6,0,0,0,.3.24,1.34,1.34,0,0,0,.54.08h.43a1.54,1.54,0,0,0,.43-.06v1.59l-.66.07c-.22,0-.44,0-.67,0a4.59,4.59,0,0,1-1.3-.15,1.75,1.75,0,0,1-.78-.45,1.67,1.67,0,0,1-.38-.75,6,6,0,0,1-.11-1V22.39h-1.55Z" />
  <path class="cls-3" d="M451.83,17h2l-5.16,13.46h-2Z" />
  <path class="cls-3" d="M459.77,17.31h5.67a5.27,5.27,0,0,1,2.23.4,3.39,3.39,0,0,1,1.33,1,3.19,3.19,0,0,1,.64,1.29,5.22,5.22,0,0,1,.17,1.3,5.15,5.15,0,0,1-.17,1.29,3.16,3.16,0,0,1-.64,1.28,3.28,3.28,0,0,1-1.33,1,5.44,5.44,0,0,1-2.23.39H462v4.93h-2.25ZM462,23.4h3.29a3.06,3.06,0,0,0,.78-.11,2.24,2.24,0,0,0,.73-.35,1.92,1.92,0,0,0,.54-.65,2.21,2.21,0,0,0,.2-1,2.59,2.59,0,0,0-.18-1,1.66,1.66,0,0,0-.48-.66,1.81,1.81,0,0,0-.7-.33,3.89,3.89,0,0,0-.85-.09H462Z" />
  <path class="cls-3" d="M471.54,17.31h2V30.16h-2Z" />
  <path class="cls-3" d="M483.62,28.09a1,1,0,0,0,.1.54.43.43,0,0,0,.39.17h.21a1.67,1.67,0,0,0,.29,0v1.42a2,2,0,0,1-.28.08l-.35.08a2.25,2.25,0,0,1-.36.06l-.31,0a2,2,0,0,1-1-.26,1.24,1.24,0,0,1-.54-.88,3.62,3.62,0,0,1-1.5.87,6,6,0,0,1-1.72.27,4.07,4.07,0,0,1-1.21-.18,3.08,3.08,0,0,1-1-.5,2.36,2.36,0,0,1-.71-.85,2.64,2.64,0,0,1-.26-1.19,2.78,2.78,0,0,1,.32-1.41,2.23,2.23,0,0,1,.83-.84,3.53,3.53,0,0,1,1.15-.44q.63-.14,1.29-.21c.37-.07.72-.12,1.06-.15a4.43,4.43,0,0,0,.89-.16,1.32,1.32,0,0,0,.61-.33.91.91,0,0,0,.23-.67,1.09,1.09,0,0,0-.19-.65,1.35,1.35,0,0,0-.47-.39,2.12,2.12,0,0,0-.62-.18,5,5,0,0,0-.65,0,2.56,2.56,0,0,0-1.42.36,1.36,1.36,0,0,0-.63,1.11h-2.06a3,3,0,0,1,.44-1.49,2.94,2.94,0,0,1,1-1,4,4,0,0,1,1.32-.5,7.65,7.65,0,0,1,1.51-.14,6.22,6.22,0,0,1,1.36.14,3.8,3.8,0,0,1,1.19.47,2.53,2.53,0,0,1,.86.83,2.38,2.38,0,0,1,.32,1.26Zm-2.05-2.59a2.41,2.41,0,0,1-1.15.37c-.46,0-.92.11-1.37.19a5.81,5.81,0,0,0-.63.15,2,2,0,0,0-.54.27,1.24,1.24,0,0,0-.37.45,1.56,1.56,0,0,0-.13.68.84.84,0,0,0,.19.57,1.44,1.44,0,0,0,.48.37,2.07,2.07,0,0,0,.61.19,3.38,3.38,0,0,0,.6.06,3.32,3.32,0,0,0,.74-.09,2.48,2.48,0,0,0,.75-.31,1.9,1.9,0,0,0,.58-.55,1.35,1.35,0,0,0,.24-.82Z" />
  <path class="cls-3" d="M484.9,20.86h1.55V18.07h2.05v2.79h1.85v1.53H488.5v5a4.33,4.33,0,0,0,0,.55.94.94,0,0,0,.12.4.6.6,0,0,0,.3.24,1.34,1.34,0,0,0,.54.08h.43a1.54,1.54,0,0,0,.43-.06v1.59l-.66.07c-.22,0-.44,0-.67,0a4.59,4.59,0,0,1-1.3-.15,1.75,1.75,0,0,1-.78-.45,1.67,1.67,0,0,1-.38-.75,6,6,0,0,1-.11-1V22.39H484.9Z" />
  <path class="cls-3" d="M490.91,20.86h1.53v-.78a3.87,3.87,0,0,1,.22-1.43,1.87,1.87,0,0,1,1.39-1.24,5,5,0,0,1,1-.1,5.69,5.69,0,0,1,1.45.13V19A3,3,0,0,0,496,19a4,4,0,0,0-.53,0,1.26,1.26,0,0,0-.71.2.86.86,0,0,0-.3.77v1h1.75v1.53h-1.75v7.77h-2.05V22.39h-1.53Z" />
  <path class="cls-3" d="M501.76,30.42a5.14,5.14,0,0,1-2-.37,4.25,4.25,0,0,1-1.48-1,4.37,4.37,0,0,1-.92-1.55,6,6,0,0,1-.31-2,5.88,5.88,0,0,1,.31-2A4.37,4.37,0,0,1,498.3,22a4.25,4.25,0,0,1,1.48-1,5.65,5.65,0,0,1,4,0,4.25,4.25,0,0,1,1.48,1,4.37,4.37,0,0,1,.92,1.55,5.88,5.88,0,0,1,.31,2,6,6,0,0,1-.31,2,4.37,4.37,0,0,1-.92,1.55,4.25,4.25,0,0,1-1.48,1A5.15,5.15,0,0,1,501.76,30.42Zm0-1.62a2.36,2.36,0,0,0,1.19-.29,2.52,2.52,0,0,0,.83-.76,3.15,3.15,0,0,0,.48-1.05,4.81,4.81,0,0,0,.15-1.2,4.91,4.91,0,0,0-.15-1.19,3.15,3.15,0,0,0-.48-1,2.6,2.6,0,0,0-.83-.75,2.65,2.65,0,0,0-2.37,0,2.5,2.5,0,0,0-.83.75,3.15,3.15,0,0,0-.48,1,4.91,4.91,0,0,0-.15,1.19,4.81,4.81,0,0,0,.15,1.2,3.15,3.15,0,0,0,.48,1.05,2.43,2.43,0,0,0,.83.76A2.34,2.34,0,0,0,501.76,28.8Z" />
  <path class="cls-3" d="M508.17,20.86h1.93v1.8h0a2,2,0,0,1,.36-.74,3.26,3.26,0,0,1,.63-.66,3,3,0,0,1,.81-.47,2.47,2.47,0,0,1,.92-.18h.5l.28,0v2c-.15,0-.3-.05-.45-.06a3.15,3.15,0,0,0-.44,0,2.37,2.37,0,0,0-1,.21,2.22,2.22,0,0,0-.8.61,2.9,2.9,0,0,0-.54,1,4.35,4.35,0,0,0-.2,1.37v4.42h-2.05Z" />
  <path class="cls-3" d="M514.51,20.86h1.94v1.29h.06a6,6,0,0,1,.5-.63,2.75,2.75,0,0,1,.6-.48,3.18,3.18,0,0,1,.77-.32,3.75,3.75,0,0,1,1-.11,3.36,3.36,0,0,1,1.57.37,2.21,2.21,0,0,1,1,1.17,4.27,4.27,0,0,1,1.2-1.13,3.23,3.23,0,0,1,1.71-.41,3.37,3.37,0,0,1,2.3.72,3.05,3.05,0,0,1,.82,2.41v6.42h-2V24.73c0-.37,0-.71,0-1a1.88,1.88,0,0,0-.21-.79,1.14,1.14,0,0,0-.51-.51,2,2,0,0,0-.94-.18,1.74,1.74,0,0,0-1.51.64,3.15,3.15,0,0,0-.47,1.84v5.45h-2v-6a2.49,2.49,0,0,0-.35-1.47,1.47,1.47,0,0,0-1.29-.49,1.9,1.9,0,0,0-1.41.63,2.3,2.3,0,0,0-.45.75,3,3,0,0,0-.17,1v5.52h-2Z" />
  <path class="cls-3" d="M370.15,257.43h2.25v12.86h-2.25Z" />
  <path class="cls-3" d="M374.87,261h1.94v1.37l0,0a3.45,3.45,0,0,1,1.22-1.21,3.18,3.18,0,0,1,1.67-.44,3.49,3.49,0,0,1,2.42.79,3.06,3.06,0,0,1,.88,2.38v6.39H381v-5.85a2.56,2.56,0,0,0-.47-1.6,1.7,1.7,0,0,0-1.35-.49,2.19,2.19,0,0,0-.94.19,2,2,0,0,0-.7.52,2.49,2.49,0,0,0-.45.78,2.76,2.76,0,0,0-.16,1v5.49h-2.05Z" />
  <path class="cls-3" d="M384.26,261h1.55v-2.79h2.05V261h1.86v1.53h-1.86v5a4.61,4.61,0,0,0,0,.56,1,1,0,0,0,.13.39.54.54,0,0,0,.29.24,1.32,1.32,0,0,0,.54.09h.43a2.24,2.24,0,0,0,.44-.07v1.59l-.67.07c-.22,0-.44,0-.67,0a4.54,4.54,0,0,1-1.3-.16,1.66,1.66,0,0,1-.77-.45,1.46,1.46,0,0,1-.38-.74,5.2,5.2,0,0,1-.12-1v-5.49h-1.55Z" />
  <path class="cls-3" d="M392.79,266.16a3.39,3.39,0,0,0,.16,1,2.47,2.47,0,0,0,.46.88,2.19,2.19,0,0,0,.77.6,2.54,2.54,0,0,0,1.12.23,2.41,2.41,0,0,0,1.44-.39,2.25,2.25,0,0,0,.82-1.16h1.95a4.06,4.06,0,0,1-.56,1.35,3.78,3.78,0,0,1-.95,1,4.21,4.21,0,0,1-1.26.61,5.28,5.28,0,0,1-3.39-.15,4.08,4.08,0,0,1-1.43-1,4.29,4.29,0,0,1-.88-1.55,6.23,6.23,0,0,1-.3-2,5.58,5.58,0,0,1,.32-1.88,4.88,4.88,0,0,1,.9-1.57,4.39,4.39,0,0,1,1.41-1.07,4.34,4.34,0,0,1,1.87-.39,4.12,4.12,0,0,1,2,.46,4.27,4.27,0,0,1,1.45,1.21,4.94,4.94,0,0,1,.84,1.74,5.26,5.26,0,0,1,.13,2Zm4.79-1.35a3.29,3.29,0,0,0-.2-.93,3,3,0,0,0-.47-.79,2.43,2.43,0,0,0-.72-.54,2.28,2.28,0,0,0-.95-.2,2.38,2.38,0,0,0-1,.19,2.24,2.24,0,0,0-.76.52,2.61,2.61,0,0,0-.5.78,3.11,3.11,0,0,0-.21,1Z" />
  <path class="cls-3" d="M401.2,261h1.93v1.8h0a2.17,2.17,0,0,1,.35-.74,3.92,3.92,0,0,1,.63-.66,3.49,3.49,0,0,1,.82-.47,2.47,2.47,0,0,1,.92-.18,3.06,3.06,0,0,1,.5,0l.27,0v2l-.44-.06a3.25,3.25,0,0,0-.44,0,2.3,2.3,0,0,0-1.78.82,2.9,2.9,0,0,0-.54,1,4.39,4.39,0,0,0-.2,1.37v4.43H401.2Z" />
  <path class="cls-3" d="M407.86,261h1.94v1.37l0,0a3.45,3.45,0,0,1,1.22-1.21,3.24,3.24,0,0,1,1.68-.44,3.47,3.47,0,0,1,2.41.79,3,3,0,0,1,.88,2.38v6.39h-2v-5.85a2.5,2.5,0,0,0-.47-1.6,1.7,1.7,0,0,0-1.35-.49,2.12,2.12,0,0,0-.93.19,2,2,0,0,0-.71.52,2.49,2.49,0,0,0-.45.78,3,3,0,0,0-.16,1v5.49h-2.05Z" />
  <path class="cls-3" d="M426,268.22a1.19,1.19,0,0,0,.09.54.45.45,0,0,0,.39.16h.22a1.11,1.11,0,0,0,.29,0v1.42l-.28.08-.35.09-.36,0-.31,0a2,2,0,0,1-1-.25,1.25,1.25,0,0,1-.54-.89,3.6,3.6,0,0,1-1.51.87,5.86,5.86,0,0,1-1.72.27,4.3,4.3,0,0,1-1.2-.17,3.25,3.25,0,0,1-1-.51,2.39,2.39,0,0,1-.7-.84,2.56,2.56,0,0,1-.26-1.2,2.74,2.74,0,0,1,.31-1.4,2.34,2.34,0,0,1,.83-.85,3.87,3.87,0,0,1,1.15-.44q.64-.13,1.29-.21c.37-.07.73-.12,1.06-.15a5.14,5.14,0,0,0,.89-.15,1.43,1.43,0,0,0,.61-.34.91.91,0,0,0,.23-.67,1,1,0,0,0-.19-.65,1.26,1.26,0,0,0-.47-.39,2,2,0,0,0-.62-.18,4.93,4.93,0,0,0-.65,0,2.58,2.58,0,0,0-1.42.36,1.41,1.41,0,0,0-.63,1.11H418a3.15,3.15,0,0,1,.43-1.49,2.9,2.9,0,0,1,1-.95,4.09,4.09,0,0,1,1.33-.51,8.31,8.31,0,0,1,1.51-.14,6.72,6.72,0,0,1,1.35.14,4,4,0,0,1,1.2.47,2.53,2.53,0,0,1,.85.84,2.26,2.26,0,0,1,.33,1.25Zm-2.06-2.6a2.37,2.37,0,0,1-1.15.37c-.45,0-.91.11-1.37.19l-.63.15a2.27,2.27,0,0,0-.54.27,1.36,1.36,0,0,0-.37.45,1.59,1.59,0,0,0-.13.68.89.89,0,0,0,.2.58,1.51,1.51,0,0,0,.47.36,2,2,0,0,0,.62.19,3.06,3.06,0,0,0,1.34,0,2.29,2.29,0,0,0,.74-.31,1.94,1.94,0,0,0,.59-.55,1.42,1.42,0,0,0,.23-.82Z" />
  <path class="cls-3" d="M428.25,257.43h2.06v12.86h-2.06Z" />
  <path class="cls-3" d="M445.34,268.22a1.19,1.19,0,0,0,.09.54.45.45,0,0,0,.39.16H446a1.11,1.11,0,0,0,.29,0v1.42l-.28.08-.35.09-.36,0-.31,0a2,2,0,0,1-1-.25,1.25,1.25,0,0,1-.54-.89,3.6,3.6,0,0,1-1.51.87,5.86,5.86,0,0,1-1.72.27,4.3,4.3,0,0,1-1.2-.17,3.25,3.25,0,0,1-1-.51,2.39,2.39,0,0,1-.7-.84,2.56,2.56,0,0,1-.26-1.2,2.74,2.74,0,0,1,.31-1.4,2.34,2.34,0,0,1,.83-.85,3.87,3.87,0,0,1,1.15-.44q.65-.13,1.29-.21c.37-.07.73-.12,1.06-.15a5.14,5.14,0,0,0,.89-.15,1.43,1.43,0,0,0,.61-.34.91.91,0,0,0,.23-.67,1,1,0,0,0-.19-.65,1.26,1.26,0,0,0-.47-.39,2,2,0,0,0-.62-.18,4.93,4.93,0,0,0-.65,0,2.58,2.58,0,0,0-1.42.36,1.41,1.41,0,0,0-.63,1.11h-2.05a3.15,3.15,0,0,1,.43-1.49,2.9,2.9,0,0,1,1-.95,4.09,4.09,0,0,1,1.33-.51,8.31,8.31,0,0,1,1.51-.14,6.72,6.72,0,0,1,1.35.14,4,4,0,0,1,1.2.47,2.53,2.53,0,0,1,.85.84,2.26,2.26,0,0,1,.33,1.25Zm-2.06-2.6a2.37,2.37,0,0,1-1.15.37c-.45,0-.91.11-1.37.19l-.63.15a2.27,2.27,0,0,0-.54.27,1.36,1.36,0,0,0-.37.45,1.59,1.59,0,0,0-.13.68.89.89,0,0,0,.2.58,1.51,1.51,0,0,0,.47.36,2,2,0,0,0,.62.19,3.06,3.06,0,0,0,1.34,0,2.29,2.29,0,0,0,.74-.31,1.94,1.94,0,0,0,.59-.55,1.35,1.35,0,0,0,.23-.82Z" />
  <path class="cls-3" d="M455.72,270.29h-2V269h0a2.77,2.77,0,0,1-1.13,1.12,3,3,0,0,1-1.52.43,3.42,3.42,0,0,1-2.65-.91,4,4,0,0,1-.82-2.75V261h2.05v5.71a2.51,2.51,0,0,0,.47,1.72,1.69,1.69,0,0,0,1.31.51,2.57,2.57,0,0,0,1.08-.2,1.92,1.92,0,0,0,.71-.53,2,2,0,0,0,.38-.8,4.05,4.05,0,0,0,.12-1V261h2.05Z" />
  <path class="cls-3" d="M457,261h1.54v-2.79h2.06V261h1.85v1.53h-1.85v5a4.79,4.79,0,0,0,0,.56,1,1,0,0,0,.13.39.53.53,0,0,0,.3.24,1.32,1.32,0,0,0,.54.09H462a2.14,2.14,0,0,0,.43-.07v1.59l-.67.07c-.21,0-.44,0-.66,0a4.62,4.62,0,0,1-1.31-.16,1.66,1.66,0,0,1-.77-.45,1.54,1.54,0,0,1-.38-.74,5.2,5.2,0,0,1-.12-1v-5.49H457Z" />
  <path class="cls-3" d="M463.88,257.43h2.05v4.77h0a3,3,0,0,1,1.13-1.05,3.33,3.33,0,0,1,1.66-.42,3.49,3.49,0,0,1,2.42.79,3.06,3.06,0,0,1,.88,2.38v6.39H470v-5.85a2.62,2.62,0,0,0-.47-1.6,1.7,1.7,0,0,0-1.35-.49,2.19,2.19,0,0,0-.94.19,1.92,1.92,0,0,0-.7.52,2.49,2.49,0,0,0-.45.78,2.76,2.76,0,0,0-.16,1v5.49h-2.05Z" />
  <path class="cls-3" d="M475.81,266.16a3.7,3.7,0,0,0,.15,1,2.64,2.64,0,0,0,.46.88,2.14,2.14,0,0,0,.78.6,2.53,2.53,0,0,0,1.11.23,2.46,2.46,0,0,0,1.45-.39,2.25,2.25,0,0,0,.82-1.16h1.94a3.68,3.68,0,0,1-.56,1.35,3.78,3.78,0,0,1-.95,1,4.15,4.15,0,0,1-1.25.61,5.28,5.28,0,0,1-3.39-.15,4,4,0,0,1-1.43-1,4.31,4.31,0,0,1-.89-1.55,6.53,6.53,0,0,1-.29-2,5.58,5.58,0,0,1,.31-1.88,4.88,4.88,0,0,1,.9-1.57,4.18,4.18,0,0,1,3.29-1.46,4.12,4.12,0,0,1,2,.46,4.37,4.37,0,0,1,1.45,1.21,4.92,4.92,0,0,1,.83,1.74,5.26,5.26,0,0,1,.14,2Zm4.79-1.35a3.69,3.69,0,0,0-.21-.93,2.51,2.51,0,0,0-.47-.79,2.43,2.43,0,0,0-.72-.54,2.2,2.2,0,0,0-.94-.2,2.38,2.38,0,0,0-1,.19,2.14,2.14,0,0,0-.76.52,2.43,2.43,0,0,0-.5.78,2.63,2.63,0,0,0-.21,1Z" />
  <path class="cls-3" d="M484.21,261h2v1.37l0,0a3.45,3.45,0,0,1,1.22-1.21,3.18,3.18,0,0,1,1.67-.44,3.45,3.45,0,0,1,2.41.79,3,3,0,0,1,.89,2.38v6.39h-2.06v-5.85a2.5,2.5,0,0,0-.46-1.6,1.7,1.7,0,0,0-1.35-.49,2.19,2.19,0,0,0-.94.19,1.92,1.92,0,0,0-.7.52,2.49,2.49,0,0,0-.45.78,2.76,2.76,0,0,0-.16,1v5.49h-2.06Z" />
  <path class="cls-3" d="M493.61,261h1.55v-2.79h2V261h1.86v1.53h-1.86v5a4.61,4.61,0,0,0,0,.56,1.12,1.12,0,0,0,.12.39.6.6,0,0,0,.3.24,1.32,1.32,0,0,0,.54.09h.43a2.24,2.24,0,0,0,.44-.07v1.59l-.67.07c-.22,0-.44,0-.67,0a4.54,4.54,0,0,1-1.3-.16,1.75,1.75,0,0,1-.78-.45,1.53,1.53,0,0,1-.37-.74,5.2,5.2,0,0,1-.12-1v-5.49h-1.55Z" />
  <path class="cls-3" d="M500.59,257.43h2.06v1.95h-2.06Zm0,3.55h2.06v9.31h-2.06Z" />
  <path class="cls-3" d="M511.16,264.09a1.89,1.89,0,0,0-.69-1.3,2.24,2.24,0,0,0-1.43-.44,2.93,2.93,0,0,0-.85.13,2,2,0,0,0-.83.51,2.78,2.78,0,0,0-.63,1,4.85,4.85,0,0,0-.25,1.72,5,5,0,0,0,.14,1.15,3.07,3.07,0,0,0,.43,1,2.41,2.41,0,0,0,.76.73,2.24,2.24,0,0,0,1.14.28,2.06,2.06,0,0,0,1.48-.56,2.6,2.6,0,0,0,.73-1.57h2.05a4.49,4.49,0,0,1-1.37,2.78,4.18,4.18,0,0,1-2.89,1,4.86,4.86,0,0,1-1.94-.37,4,4,0,0,1-1.41-1,4.09,4.09,0,0,1-.87-1.52,5.88,5.88,0,0,1-.3-1.91,6.28,6.28,0,0,1,.29-2,4.52,4.52,0,0,1,.86-1.59,4,4,0,0,1,1.43-1.07,5,5,0,0,1,2-.38,6,6,0,0,1,1.54.2,4,4,0,0,1,1.29.63,3.21,3.21,0,0,1,.93,1,3.61,3.61,0,0,1,.43,1.49Z" />
  <path class="cls-3" d="M522.68,268.22a1.05,1.05,0,0,0,.1.54.44.44,0,0,0,.39.16h.21a1.06,1.06,0,0,0,.29,0v1.42l-.28.08-.35.09-.36,0-.3,0a2.09,2.09,0,0,1-1-.25,1.28,1.28,0,0,1-.54-.89,3.62,3.62,0,0,1-1.5.87,6,6,0,0,1-1.72.27,4.42,4.42,0,0,1-1.21-.17,3.31,3.31,0,0,1-1-.51,2.42,2.42,0,0,1-.71-.84,2.68,2.68,0,0,1-.26-1.2,2.74,2.74,0,0,1,.32-1.4,2.26,2.26,0,0,1,.83-.85,3.77,3.77,0,0,1,1.15-.44c.42-.09.85-.16,1.28-.21s.73-.12,1.07-.15a5.31,5.31,0,0,0,.89-.15,1.43,1.43,0,0,0,.61-.34.9.9,0,0,0,.22-.67,1.09,1.09,0,0,0-.18-.65,1.35,1.35,0,0,0-.47-.39,2,2,0,0,0-.62-.18,5,5,0,0,0-.65,0,2.56,2.56,0,0,0-1.42.36,1.38,1.38,0,0,0-.63,1.11h-2.06a3.15,3.15,0,0,1,.44-1.49,2.9,2.9,0,0,1,1-.95,4,4,0,0,1,1.32-.51,8.42,8.42,0,0,1,1.52-.14,6.7,6.7,0,0,1,1.34.14,3.76,3.76,0,0,1,1.2.47,2.56,2.56,0,0,1,.86.84,2.34,2.34,0,0,1,.32,1.25Zm-2-2.6a2.41,2.41,0,0,1-1.15.37c-.46,0-.92.11-1.37.19a5.81,5.81,0,0,0-.63.15,2,2,0,0,0-.54.27,1.24,1.24,0,0,0-.37.45,1.59,1.59,0,0,0-.14.68.89.89,0,0,0,.2.58,1.44,1.44,0,0,0,.48.36,2.07,2.07,0,0,0,.61.19,3.4,3.4,0,0,0,.61.06,3.3,3.3,0,0,0,.73-.09,2.25,2.25,0,0,0,.75-.31,1.9,1.9,0,0,0,.58-.55,1.35,1.35,0,0,0,.24-.82Z" />
  <path class="cls-3" d="M524,261h1.55v-2.79h2V261h1.85v1.53h-1.85v5a4.61,4.61,0,0,0,0,.56.94.94,0,0,0,.12.39.6.6,0,0,0,.3.24,1.32,1.32,0,0,0,.54.09H529a2.14,2.14,0,0,0,.43-.07v1.59l-.66.07c-.22,0-.44,0-.67,0a4.54,4.54,0,0,1-1.3-.16,1.75,1.75,0,0,1-.78-.45,1.63,1.63,0,0,1-.38-.74,6.14,6.14,0,0,1-.11-1v-5.49H524Z" />
  <path class="cls-3" d="M535.15,270.54a5.14,5.14,0,0,1-2-.37,4.25,4.25,0,0,1-1.48-1,4.37,4.37,0,0,1-.92-1.55,6.41,6.41,0,0,1,0-3.94,4.46,4.46,0,0,1,.92-1.55,4.1,4.1,0,0,1,1.48-1,5.51,5.51,0,0,1,4,0,4.1,4.1,0,0,1,1.48,1,4.46,4.46,0,0,1,.92,1.55,6.41,6.41,0,0,1,0,3.94,4.37,4.37,0,0,1-.92,1.55,4.25,4.25,0,0,1-1.48,1A5.15,5.15,0,0,1,535.15,270.54Zm0-1.62a2.36,2.36,0,0,0,1.19-.29,2.33,2.33,0,0,0,.83-.76,3.15,3.15,0,0,0,.48-1.05,4.8,4.8,0,0,0,0-2.38,3.11,3.11,0,0,0-.48-1.06,2.48,2.48,0,0,0-.83-.74,2.57,2.57,0,0,0-2.37,0,2.48,2.48,0,0,0-.83.74,3.11,3.11,0,0,0-.48,1.06,4.8,4.8,0,0,0,0,2.38,3.15,3.15,0,0,0,.48,1.05,2.36,2.36,0,0,0,2,1.05Z" />
  <path class="cls-3" d="M541.56,261h1.93v1.8h0a2,2,0,0,1,.36-.74,3.28,3.28,0,0,1,1.44-1.13,2.47,2.47,0,0,1,.92-.18,3.06,3.06,0,0,1,.5,0l.28,0v2l-.44-.06-.45,0a2.37,2.37,0,0,0-1,.21,2.34,2.34,0,0,0-.8.61,2.9,2.9,0,0,0-.54,1,4.39,4.39,0,0,0-.2,1.37v4.43h-2.05Z" />
  <path class="cls-3" d="M634.13,87.93h2.29l2.32,9.82h0l2.6-9.82h2.3l2.52,9.82h0l2.4-9.82h2.28l-3.54,12.85h-2.29L642.5,91h0l-2.63,9.83h-2.32Z" />
  <path class="cls-3" d="M653.37,96.66a3.63,3.63,0,0,0,.15,1,2.73,2.73,0,0,0,.46.88,2.23,2.23,0,0,0,.78.6,2.39,2.39,0,0,0,1.11.23,2.44,2.44,0,0,0,1.45-.39,2.21,2.21,0,0,0,.82-1.16h1.94a3.7,3.7,0,0,1-.55,1.35,4,4,0,0,1-1,1,4.15,4.15,0,0,1-1.25.61,5.28,5.28,0,0,1-3.39-.15,4,4,0,0,1-1.43-1,4.15,4.15,0,0,1-.88-1.55,6.23,6.23,0,0,1-.3-2,5.62,5.62,0,0,1,.31-1.88,4.83,4.83,0,0,1,.9-1.56,4.28,4.28,0,0,1,3.29-1.47,4.12,4.12,0,0,1,2,.46,4.37,4.37,0,0,1,1.45,1.21,5.21,5.21,0,0,1,.84,1.74,5.5,5.5,0,0,1,.13,2Zm4.79-1.35a3.29,3.29,0,0,0-.21-.94,2.36,2.36,0,0,0-.47-.78,2,2,0,0,0-.72-.54,2.06,2.06,0,0,0-.94-.21,2.38,2.38,0,0,0-1,.19,2.14,2.14,0,0,0-.76.52,2.43,2.43,0,0,0-.5.78,2.64,2.64,0,0,0-.21,1Z" />
  <path class="cls-3" d="M661.83,87.93h2v4.75h0a2.76,2.76,0,0,1,.52-.61,2.91,2.91,0,0,1,.68-.46,3.39,3.39,0,0,1,.77-.29,3.19,3.19,0,0,1,.8-.1,4.45,4.45,0,0,1,1.92.39A3.74,3.74,0,0,1,670,92.67a4.59,4.59,0,0,1,.81,1.57,6.72,6.72,0,0,1,.27,1.93A6.55,6.55,0,0,1,670.8,98a4.53,4.53,0,0,1-.73,1.55,3.65,3.65,0,0,1-3,1.49,7.54,7.54,0,0,1-.94-.06,4,4,0,0,1-.91-.25,3,3,0,0,1-.78-.46,2.38,2.38,0,0,1-.59-.76h0v1.28h-1.94Zm7.16,8.2a4.54,4.54,0,0,0-.16-1.22,3.37,3.37,0,0,0-.48-1,2.6,2.6,0,0,0-.81-.74,2.19,2.19,0,0,0-1.12-.28,2.26,2.26,0,0,0-1.95.9,4,4,0,0,0-.66,2.39,4.94,4.94,0,0,0,.17,1.31,3.1,3.1,0,0,0,.51,1,2.7,2.7,0,0,0,.82.69,2.59,2.59,0,0,0,2.3,0,2.49,2.49,0,0,0,.8-.75,3,3,0,0,0,.45-1A5.32,5.32,0,0,0,669,96.13Z" />
  <path class="cls-3" d="M676.5,87.93h2.39l5,12.85h-2.41l-1.2-3.4H675.1l-1.21,3.4h-2.32Zm-.79,7.74h3.92l-1.92-5.53h-.06Z" />
  <path class="cls-3" d="M693,100.78h-2v-1.3h0a2.89,2.89,0,0,1-1.12,1.13,3.1,3.1,0,0,1-1.53.42,3.4,3.4,0,0,1-2.65-.91,4,4,0,0,1-.82-2.74V91.47h2.05v5.71a2.56,2.56,0,0,0,.47,1.73,1.72,1.72,0,0,0,1.31.5,2.57,2.57,0,0,0,1.08-.2,1.84,1.84,0,0,0,1.09-1.33,4.05,4.05,0,0,0,.12-1v-5.4H693Z" />
  <path class="cls-3" d="M694.18,91.47h1.54V88.68h2.06v2.79h1.85V93h-1.85v5c0,.22,0,.4,0,.56a.9.9,0,0,0,.13.39.63.63,0,0,0,.3.25,1.54,1.54,0,0,0,.54.08h.43a3.18,3.18,0,0,0,.43-.06v1.58l-.67.07a4.68,4.68,0,0,1-.66,0,4.28,4.28,0,0,1-1.31-.16,1.8,1.8,0,0,1-.77-.44,1.57,1.57,0,0,1-.38-.75,6,6,0,0,1-.12-1V93h-1.54Z" />
  <path class="cls-3" d="M701.11,87.93h2V92.7h0a3.13,3.13,0,0,1,1.13-1.06,3.33,3.33,0,0,1,1.66-.42,3.49,3.49,0,0,1,2.42.79,3.06,3.06,0,0,1,.88,2.38v6.39h-2V94.93a2.58,2.58,0,0,0-.47-1.6,1.74,1.74,0,0,0-1.35-.49,2.19,2.19,0,0,0-.94.19,2,2,0,0,0-.7.52,2.49,2.49,0,0,0-.45.78,2.76,2.76,0,0,0-.16,1v5.49h-2Z" />
  <path class="cls-3" d="M711.44,91.47h1.94v1.37l0,0a3.4,3.4,0,0,1,1.22-1.22,3.32,3.32,0,0,1,1.68-.44,3.47,3.47,0,0,1,2.41.79,3,3,0,0,1,.88,2.38v6.39h-2.05V94.93a2.58,2.58,0,0,0-.47-1.6,1.74,1.74,0,0,0-1.35-.49,2.19,2.19,0,0,0-.94.19,2,2,0,0,0-.7.52,2.49,2.49,0,0,0-.45.78,2.76,2.76,0,0,0-.16,1v5.49h-2Z" />
  <g id="Computers-Devices-Electronics_Laptop-Computers_laptop" data-name="Computers-Devices-Electronics / Laptop-Computers / laptop">
    <g id="Group_108" data-name="Group 108">
      <g id="laptop">
        <path class="cls-3" d="M546.15,154H383.2a3.5,3.5,0,0,1-3.5-3.5V62.23a17.1,17.1,0,0,1,17.08-17.08H532.57a17.1,17.1,0,0,1,17.08,17.08v88.26A3.5,3.5,0,0,1,546.15,154ZM386.7,147h156V62.23a10.09,10.09,0,0,0-10.08-10.08H396.78A10.09,10.09,0,0,0,386.7,62.23Z" />
        <path class="cls-3" d="M552.94,215.1H376.41a17.09,17.09,0,0,1-15.61-24L380,149a3.5,3.5,0,0,1,3.18-2h163a3.5,3.5,0,0,1,3.18,2l19.2,42,0,0a17.09,17.09,0,0,1-15.61,24Zm-176.53-7H552.94a10.09,10.09,0,0,0,9.22-14.16L543.9,154H385.45l-18.27,40a10.09,10.09,0,0,0,9.23,14.14Z" />
        <path class="cls-3" d="M478.25,187.94H451.1a3.5,3.5,0,0,1,0-7h27.15a3.5,3.5,0,0,1,0,7Z" />
      </g>
    </g>
  </g>
  <path id="Oval_30" data-name="Oval 30" class="cls-2" d="M466.48,242.65A39.45,39.45,0,1,0,427,203.2,39.44,39.44,0,0,0,466.48,242.65Z" />
  <path class="cls-3" d="M466.48,246.15a42.95,42.95,0,1,1,42.94-43A43,43,0,0,1,466.48,246.15Zm0-78.89a35.95,35.95,0,1,0,35.94,35.94A36,36,0,0,0,466.48,167.26Z" />
  <path class="cls-3" d="M445.44,225.11a3.5,3.5,0,0,1-3.5-3.5v-21c0-15,11-27.17,24.54-27.17S491,185.59,491,200.57v5.26a3.5,3.5,0,1,1-7,0v-5.26c0-11.12-7.86-20.17-17.53-20.17s-17.54,9-17.54,20.17v21A3.5,3.5,0,0,1,445.44,225.11Z" />
  <path class="cls-3" d="M487.52,225.11a3.5,3.5,0,0,1-3.5-3.5v-5.26a3.5,3.5,0,0,1,7,0v5.26A3.5,3.5,0,0,1,487.52,225.11Z" />
  <path class="cls-3" d="M456,225.11a3.5,3.5,0,0,1-3.5-3.5v-5.26a3.5,3.5,0,1,1,7,0v5.26A3.5,3.5,0,0,1,456,225.11Z" />
  <path class="cls-3" d="M477,225.11a3.5,3.5,0,0,1-3.5-3.5V203.2c0-5.23-3.21-9.65-7-9.65s-7,4.42-7,9.65v2.63a3.5,3.5,0,0,1-7,0V203.2c0-9.18,6.29-16.65,14-16.65s14,7.47,14,16.65v18.41A3.5,3.5,0,0,1,477,225.11Z" />
  <path class="cls-3" d="M466.48,225.11a3.5,3.5,0,0,1-3.5-3.5V219a3.5,3.5,0,0,1,7,0v2.63A3.5,3.5,0,0,1,466.48,225.11Z" />
  <path class="cls-3" d="M466.48,212a3.5,3.5,0,0,1-3.5-3.5v-7.89a3.5,3.5,0,1,1,7,0v7.89A3.5,3.5,0,0,1,466.48,212Z" />
  <g class="cls-4">
    <rect class="cls-3" x="392.14" y="57.82" width="144" height="26.03" />
    <rect class="cls-3" x="392.14" y="87.13" width="144" height="26.03" />
    <rect class="cls-3" x="392.14" y="116.45" width="144" height="26.03" />
    <path class="cls-2" d="M429.91,65.69h2l4.21,10.92h-2.05l-1-2.89h-4.36l-1,2.89h-2Zm-.67,6.58h3.34l-1.64-4.7h-.05Z" />
    <path class="cls-2" d="M437,68.7h1.65v1.07h0a2.19,2.19,0,0,1,1-1,3.5,3.5,0,0,1,1.42-.29,4,4,0,0,1,1.63.32,3.13,3.13,0,0,1,1.15.91,3.79,3.79,0,0,1,.69,1.34,5.86,5.86,0,0,1,0,3.18,3.83,3.83,0,0,1-.62,1.32,3.18,3.18,0,0,1-1.07.92,3.12,3.12,0,0,1-1.51.34,5.09,5.09,0,0,1-.77-.06,3.25,3.25,0,0,1-.73-.23,2.88,2.88,0,0,1-.65-.39,2.23,2.23,0,0,1-.5-.56h0v4H437Zm6.09,4a4.07,4.07,0,0,0-.14-1,2.9,2.9,0,0,0-.41-.89,2.3,2.3,0,0,0-.69-.63,1.86,1.86,0,0,0-1-.24,1.93,1.93,0,0,0-1.66.77,3.39,3.39,0,0,0-.56,2,3.92,3.92,0,0,0,.15,1.11,2.41,2.41,0,0,0,.43.88,2.15,2.15,0,0,0,.7.58,2.14,2.14,0,0,0,2,0,2.15,2.15,0,0,0,.68-.63,2.45,2.45,0,0,0,.38-.89A4.31,4.31,0,0,0,443.09,72.66Z" />
    <path class="cls-2" d="M446.35,68.7H448v1.07h0a2.17,2.17,0,0,1,1-1,3.58,3.58,0,0,1,1.43-.29,4,4,0,0,1,1.63.32,3.13,3.13,0,0,1,1.15.91,3.79,3.79,0,0,1,.69,1.34,5.86,5.86,0,0,1,0,3.18,4,4,0,0,1-.62,1.32,3.28,3.28,0,0,1-1.07.92,3.15,3.15,0,0,1-1.51.34,5,5,0,0,1-.77-.06,3.1,3.1,0,0,1-.73-.23,2.67,2.67,0,0,1-.65-.39,2.06,2.06,0,0,1-.5-.56h0v4h-1.74Zm6.09,4a4.07,4.07,0,0,0-.14-1,2.71,2.71,0,0,0-.42-.89,2.15,2.15,0,0,0-.68-.63,1.89,1.89,0,0,0-.95-.24,1.92,1.92,0,0,0-1.66.77,3.32,3.32,0,0,0-.56,2,4.32,4.32,0,0,0,.14,1.11,2.6,2.6,0,0,0,.44.88,2.05,2.05,0,0,0,.7.58,2.14,2.14,0,0,0,1.95,0,2.15,2.15,0,0,0,.68-.63,2.63,2.63,0,0,0,.38-.89A4.31,4.31,0,0,0,452.44,72.66Z" />
    <path class="cls-2" d="M455.69,65.69h1.75V76.61h-1.75Z" />
    <path class="cls-2" d="M459.38,65.69h1.75v1.65h-1.75Zm0,3h1.75v7.91h-1.75Z" />
    <path class="cls-2" d="M468.36,71.35a1.64,1.64,0,0,0-.59-1.11,1.9,1.9,0,0,0-1.21-.38,2.36,2.36,0,0,0-.72.12,1.66,1.66,0,0,0-.71.43,2.35,2.35,0,0,0-.53.87,4.19,4.19,0,0,0-.22,1.46,4.11,4.11,0,0,0,.12,1,2.72,2.72,0,0,0,.37.87,1.84,1.84,0,0,0,.65.62,1.8,1.8,0,0,0,1,.24,1.74,1.74,0,0,0,1.26-.48,2.19,2.19,0,0,0,.62-1.33h1.75A3.93,3.93,0,0,1,468.94,76a3.61,3.61,0,0,1-2.46.81,4,4,0,0,1-1.64-.31,3.42,3.42,0,0,1-1.21-.86,3.73,3.73,0,0,1-.74-1.29,5,5,0,0,1-.25-1.62,5.67,5.67,0,0,1,.24-1.67,3.84,3.84,0,0,1,.74-1.35,3.37,3.37,0,0,1,1.22-.91,4.23,4.23,0,0,1,1.7-.32,4.66,4.66,0,0,1,1.31.17,3.4,3.4,0,0,1,1.1.53,2.71,2.71,0,0,1,.79.89,3.05,3.05,0,0,1,.37,1.27Z" />
    <path class="cls-2" d="M478.15,74.85a.88.88,0,0,0,.09.46.35.35,0,0,0,.33.14h.18l.25,0v1.21l-.24.06-.3.07-.31,0h-.26a1.69,1.69,0,0,1-.88-.21,1,1,0,0,1-.46-.75,3,3,0,0,1-1.28.73,4.77,4.77,0,0,1-1.46.23,3.51,3.51,0,0,1-1-.14,2.78,2.78,0,0,1-.86-.43,2.11,2.11,0,0,1-.6-.72,2.19,2.19,0,0,1-.22-1,2.33,2.33,0,0,1,.27-1.19,1.94,1.94,0,0,1,.7-.72,3.11,3.11,0,0,1,1-.37,10.09,10.09,0,0,1,1.1-.18c.31-.06.61-.1.9-.13a5,5,0,0,0,.76-.13,1.18,1.18,0,0,0,.52-.28.82.82,0,0,0,.19-.58,1,1,0,0,0-.16-.55,1.16,1.16,0,0,0-.4-.33,2.18,2.18,0,0,0-.53-.15,5.48,5.48,0,0,0-.55,0,2.15,2.15,0,0,0-1.21.31,1.2,1.2,0,0,0-.53,1h-1.75a2.54,2.54,0,0,1,.37-1.27,2.44,2.44,0,0,1,.82-.81,3.15,3.15,0,0,1,1.12-.43,6.88,6.88,0,0,1,1.29-.12,5.38,5.38,0,0,1,1.14.12,3.06,3.06,0,0,1,1,.4,2.16,2.16,0,0,1,.73.71,2,2,0,0,1,.27,1.06Zm-1.74-2.2a2.1,2.1,0,0,1-1,.31c-.39,0-.77.09-1.16.16a4.72,4.72,0,0,0-.54.13,1.8,1.8,0,0,0-.46.23,1.15,1.15,0,0,0-.31.38,1.28,1.28,0,0,0-.12.58.77.77,0,0,0,.17.49,1.39,1.39,0,0,0,.41.31,1.75,1.75,0,0,0,.52.16,3.36,3.36,0,0,0,.51,0,2.94,2.94,0,0,0,.63-.08,2.15,2.15,0,0,0,.63-.26,1.6,1.6,0,0,0,.5-.47,1.17,1.17,0,0,0,.2-.69Z" />
    <path class="cls-2" d="M479.24,68.7h1.32V66.33h1.74V68.7h1.58V70H482.3v4.22c0,.19,0,.34,0,.48a.8.8,0,0,0,.11.33.52.52,0,0,0,.25.21,1.17,1.17,0,0,0,.46.07h.37a1.64,1.64,0,0,0,.37,0v1.34l-.57.07a5.17,5.17,0,0,1-.57,0,4.22,4.22,0,0,1-1.11-.13,1.43,1.43,0,0,1-.65-.39,1.22,1.22,0,0,1-.32-.63,4.52,4.52,0,0,1-.1-.87V70h-1.32Z" />
    <path class="cls-2" d="M485.18,65.69h1.74v1.65h-1.74Zm0,3h1.74v7.91h-1.74Z" />
    <path class="cls-2" d="M492.44,76.82a4.32,4.32,0,0,1-1.69-.31,3.72,3.72,0,0,1-1.25-.86,3.79,3.79,0,0,1-.78-1.32,5.33,5.33,0,0,1,0-3.35,3.79,3.79,0,0,1,.78-1.32,3.72,3.72,0,0,1,1.25-.86,4.32,4.32,0,0,1,1.69-.31,4.25,4.25,0,0,1,1.69.31,3.66,3.66,0,0,1,1.26.86,3.79,3.79,0,0,1,.78,1.32,5.33,5.33,0,0,1,0,3.35,3.79,3.79,0,0,1-.78,1.32,3.66,3.66,0,0,1-1.26.86A4.25,4.25,0,0,1,492.44,76.82Zm0-1.37a1.92,1.92,0,0,0,1-.25,2.18,2.18,0,0,0,.71-.64,2.72,2.72,0,0,0,.4-.9,4,4,0,0,0,0-2,2.63,2.63,0,0,0-.4-.9,2.15,2.15,0,0,0-.71-.63,1.92,1.92,0,0,0-1-.25,2,2,0,0,0-1,.25,2.12,2.12,0,0,0-.7.63,2.63,2.63,0,0,0-.4.9,4,4,0,0,0,0,2,2.72,2.72,0,0,0,.4.9,2.15,2.15,0,0,0,.7.64A2,2,0,0,0,492.44,75.45Z" />
    <path class="cls-2" d="M497.89,68.7h1.65v1.16l0,0a3,3,0,0,1,1.05-1,2.74,2.74,0,0,1,1.42-.37,3,3,0,0,1,2,.67,2.58,2.58,0,0,1,.75,2v5.43h-1.75v-5a2.2,2.2,0,0,0-.39-1.36,1.46,1.46,0,0,0-1.15-.42,2,2,0,0,0-.8.16,1.75,1.75,0,0,0-.59.45,2.17,2.17,0,0,0-.39.66,2.45,2.45,0,0,0-.13.81v4.67h-1.75Z" />
    <path class="cls-2" d="M437.61,94.84h5.31a3.82,3.82,0,0,1,2.36.67,2.39,2.39,0,0,1,.88,2,2.42,2.42,0,0,1-.4,1.42,2.61,2.61,0,0,1-1.16.91v0a2.33,2.33,0,0,1,1.53,1,3.12,3.12,0,0,1,.52,1.86,3.05,3.05,0,0,1-.23,1.2,2.39,2.39,0,0,1-.72,1,3.58,3.58,0,0,1-1.25.64,6.13,6.13,0,0,1-1.82.24h-5Zm1.91,4.57h3.12a1.7,1.7,0,0,0,1.15-.39,1.37,1.37,0,0,0,.46-1.12,1.47,1.47,0,0,0-.41-1.17,1.9,1.9,0,0,0-1.2-.33h-3.12Zm0,4.79h3.38a1.91,1.91,0,0,0,1.36-.45,1.67,1.67,0,0,0,.48-1.28,1.61,1.61,0,0,0-.48-1.25,2,2,0,0,0-1.36-.43h-3.38Z" />
    <path class="cls-2" d="M448.14,97.85h1.63v1.53h0a2.26,2.26,0,0,1,.3-.63,3.16,3.16,0,0,1,.54-.56,3,3,0,0,1,.69-.4,2.17,2.17,0,0,1,.79-.15h.42l.23,0v1.68l-.37,0-.38,0a2.12,2.12,0,0,0-.83.17,2,2,0,0,0-.68.52,2.48,2.48,0,0,0-.46.85,3.79,3.79,0,0,0-.17,1.17v3.76h-1.74Z" />
    <path class="cls-2" d="M456.87,106a4.32,4.32,0,0,1-1.69-.31,3.72,3.72,0,0,1-1.25-.86,3.64,3.64,0,0,1-.78-1.32,5.33,5.33,0,0,1,0-3.35,3.64,3.64,0,0,1,.78-1.32,3.72,3.72,0,0,1,1.25-.86,4.76,4.76,0,0,1,3.38,0,3.66,3.66,0,0,1,1.26.86,3.79,3.79,0,0,1,.78,1.32,5.33,5.33,0,0,1,0,3.35,3.79,3.79,0,0,1-.78,1.32,3.66,3.66,0,0,1-1.26.86A4.28,4.28,0,0,1,456.87,106Zm0-1.37a1.92,1.92,0,0,0,1-.25,2.08,2.08,0,0,0,.71-.64,2.94,2.94,0,0,0,.4-.9,4,4,0,0,0,0-2,2.84,2.84,0,0,0-.4-.9,2.15,2.15,0,0,0-.71-.63,1.92,1.92,0,0,0-1-.25,1.94,1.94,0,0,0-1,.25,2.12,2.12,0,0,0-.7.63,2.65,2.65,0,0,0-.41.9,4,4,0,0,0,0,2,2.74,2.74,0,0,0,.41.9,2,2,0,0,0,.7.64A1.94,1.94,0,0,0,456.87,104.6Z" />
    <path class="cls-2" d="M461.6,97.85h1.85l1.55,5.91h0l1.48-5.91h1.76l1.42,5.91h0l1.61-5.91h1.78l-2.48,7.91h-1.79l-1.47-5.87h0l-1.46,5.87h-1.83Z" />
    <path class="cls-2" d="M475.54,103.22a1.29,1.29,0,0,0,.58,1.07,2.25,2.25,0,0,0,1.21.31c.16,0,.35,0,.56,0a2.83,2.83,0,0,0,.59-.15,1.1,1.1,0,0,0,.45-.31.79.79,0,0,0,.16-.54.73.73,0,0,0-.25-.55,1.62,1.62,0,0,0-.59-.35,6.7,6.7,0,0,0-.81-.22l-.94-.2a9.26,9.26,0,0,1-.94-.26,3.08,3.08,0,0,1-.81-.41,1.94,1.94,0,0,1-.57-.67,2,2,0,0,1-.22-1,1.8,1.8,0,0,1,.32-1.08,2.42,2.42,0,0,1,.79-.7,3.4,3.4,0,0,1,1.07-.38,6.49,6.49,0,0,1,1.13-.1,5,5,0,0,1,1.17.13,2.92,2.92,0,0,1,1,.42,2.44,2.44,0,0,1,.75.75,2.65,2.65,0,0,1,.37,1.13h-1.82a1.07,1.07,0,0,0-.57-.84,2.31,2.31,0,0,0-1-.22l-.43,0a1.88,1.88,0,0,0-.48.12,1,1,0,0,0-.37.24.6.6,0,0,0-.15.42.65.65,0,0,0,.22.52,1.55,1.55,0,0,0,.58.33,5.09,5.09,0,0,0,.82.22l.95.2c.31.08.62.16.93.26a3,3,0,0,1,.82.42,1.9,1.9,0,0,1,.8,1.63,2.11,2.11,0,0,1-.32,1.2,2.51,2.51,0,0,1-.83.79,3.93,3.93,0,0,1-1.14.45,5.87,5.87,0,0,1-1.24.13,5.58,5.58,0,0,1-1.39-.16,3.39,3.39,0,0,1-1.1-.52,2.49,2.49,0,0,1-.73-.85,2.71,2.71,0,0,1-.29-1.22Z" />
    <path class="cls-2" d="M483.52,102.26a2.89,2.89,0,0,0,.14.88,2,2,0,0,0,.38.75,2,2,0,0,0,.66.52,2.3,2.3,0,0,0,.95.19,2.08,2.08,0,0,0,1.23-.33,1.94,1.94,0,0,0,.7-1h1.65a3.36,3.36,0,0,1-.47,1.15,3.46,3.46,0,0,1-.81.85,3.55,3.55,0,0,1-1.07.52,4.16,4.16,0,0,1-1.23.17,4.26,4.26,0,0,1-1.65-.3,3.46,3.46,0,0,1-1.22-.86,3.68,3.68,0,0,1-.75-1.31,5.6,5.6,0,0,1-.25-1.69,4.76,4.76,0,0,1,.27-1.6,4.27,4.27,0,0,1,.76-1.33,3.55,3.55,0,0,1,2.8-1.24,3.58,3.58,0,0,1,2.9,1.42,4,4,0,0,1,.71,1.48,4.5,4.5,0,0,1,.12,1.72Zm4.07-1.15a2.72,2.72,0,0,0-.17-.8,2.2,2.2,0,0,0-.4-.66,2,2,0,0,0-.61-.46,1.77,1.77,0,0,0-.8-.18,2.24,2.24,0,0,0-.84.16,2,2,0,0,0-.64.45,2.28,2.28,0,0,0-.43.66,2.51,2.51,0,0,0-.18.83Z" />
    <path class="cls-2" d="M490.67,97.85h1.64v1.53h0a1.81,1.81,0,0,1,.3-.63,2.78,2.78,0,0,1,.53-.56,2.83,2.83,0,0,1,.7-.4,2.08,2.08,0,0,1,.78-.15h.42l.24,0v1.68l-.38,0-.37,0A1.91,1.91,0,0,0,493,100a2.66,2.66,0,0,0-.46.85,3.79,3.79,0,0,0-.17,1.17v3.76h-1.74Z" />
    <path class="cls-2" d="M436.91,124h4.82a4.66,4.66,0,0,1,1.9.33,3.07,3.07,0,0,1,1.13.84,2.89,2.89,0,0,1,.55,1.11,4.35,4.35,0,0,1,0,2.19,2.81,2.81,0,0,1-.55,1.09,2.86,2.86,0,0,1-1.13.84,4.66,4.66,0,0,1-1.9.33h-2.9v4.19h-1.92Zm1.92,5.17h2.8a2.14,2.14,0,0,0,.65-.1,2,2,0,0,0,.62-.29,1.46,1.46,0,0,0,.46-.55,1.87,1.87,0,0,0,.18-.87,2.3,2.3,0,0,0-.15-.89,1.39,1.39,0,0,0-.42-.55,1.42,1.42,0,0,0-.59-.29,3.38,3.38,0,0,0-.72-.07h-2.83Z" />
    <path class="cls-2" d="M446.92,124h1.74v10.92h-1.74Z" />
    <path class="cls-2" d="M457.19,133.15a.9.9,0,0,0,.08.46.37.37,0,0,0,.33.14h.18l.25,0v1.21l-.24.06-.3.07-.3.05h-.26a1.7,1.7,0,0,1-.89-.21,1,1,0,0,1-.46-.75,3,3,0,0,1-1.28.73,4.77,4.77,0,0,1-1.46.23,3.4,3.4,0,0,1-1-.14,2.72,2.72,0,0,1-.87-.43,2,2,0,0,1-.59-.72,2.19,2.19,0,0,1-.23-1,2.33,2.33,0,0,1,.27-1.19,1.94,1.94,0,0,1,.7-.72,3.21,3.21,0,0,1,1-.37,10.5,10.5,0,0,1,1.1-.18c.31-.06.61-.1.9-.13a4.78,4.78,0,0,0,.76-.13,1.23,1.23,0,0,0,.52-.28.78.78,0,0,0,.19-.58.9.9,0,0,0-.16-.55,1.16,1.16,0,0,0-.4-.33,2.05,2.05,0,0,0-.53-.15,5.28,5.28,0,0,0-.55,0,2.15,2.15,0,0,0-1.21.31,1.2,1.2,0,0,0-.53.95h-1.75a2.64,2.64,0,0,1,.37-1.27,2.44,2.44,0,0,1,.82-.81,3.22,3.22,0,0,1,1.12-.43,6.88,6.88,0,0,1,1.29-.12,5.54,5.54,0,0,1,1.15.12,3.1,3.1,0,0,1,1,.4,2.07,2.07,0,0,1,.73.71,2,2,0,0,1,.28,1.06Zm-1.75-2.2a2.06,2.06,0,0,1-1,.31c-.38,0-.77.09-1.16.16a5.29,5.29,0,0,0-.54.13,1.59,1.59,0,0,0-.45.23,1.07,1.07,0,0,0-.32.38,1.43,1.43,0,0,0-.11.58.72.72,0,0,0,.17.49,1.23,1.23,0,0,0,.4.31,1.75,1.75,0,0,0,.52.16,3.36,3.36,0,0,0,.51.05,2.86,2.86,0,0,0,.63-.08,2.21,2.21,0,0,0,.64-.26,1.57,1.57,0,0,0,.49-.47,1.11,1.11,0,0,0,.2-.69Z" />
    <path class="cls-2" d="M458.27,127h1.32v-2.37h1.74V127h1.58v1.3h-1.58v4.22a3.33,3.33,0,0,0,0,.48.8.8,0,0,0,.1.33.52.52,0,0,0,.25.21,1.2,1.2,0,0,0,.46.07h.37a1.57,1.57,0,0,0,.37,0v1.34l-.57.07a5.12,5.12,0,0,1-.56,0,4.11,4.11,0,0,1-1.11-.13,1.53,1.53,0,0,1-.66-.39,1.22,1.22,0,0,1-.32-.63,4.52,4.52,0,0,1-.1-.87V128.3h-1.32Z" />
    <path class="cls-2" d="M463.38,127h1.3v-.66a3.16,3.16,0,0,1,.19-1.21,1.56,1.56,0,0,1,.49-.72,1.6,1.6,0,0,1,.69-.34,3.68,3.68,0,0,1,.82-.08,5.24,5.24,0,0,1,1.23.1v1.36a2.25,2.25,0,0,0-.36-.06,3,3,0,0,0-.46,0,1.08,1.08,0,0,0-.6.17.73.73,0,0,0-.25.66V127h1.48v1.3h-1.48v6.61h-1.75V128.3h-1.3Z" />
    <path class="cls-2" d="M472.61,135.12a4.28,4.28,0,0,1-1.69-.31,3.66,3.66,0,0,1-1.26-.86,3.79,3.79,0,0,1-.78-1.32,5.53,5.53,0,0,1,0-3.35,3.79,3.79,0,0,1,.78-1.32,3.66,3.66,0,0,1,1.26-.86,4.76,4.76,0,0,1,3.38,0,3.72,3.72,0,0,1,1.25.86,3.51,3.51,0,0,1,.78,1.32,5.33,5.33,0,0,1,0,3.35,3.51,3.51,0,0,1-.78,1.32,3.72,3.72,0,0,1-1.25.86A4.32,4.32,0,0,1,472.61,135.12Zm0-1.37a1.94,1.94,0,0,0,1-.25,2.15,2.15,0,0,0,.7-.64,2.74,2.74,0,0,0,.41-.9,4,4,0,0,0,0-2,2.65,2.65,0,0,0-.41-.9,2.12,2.12,0,0,0-.7-.63,1.94,1.94,0,0,0-1-.25,1.92,1.92,0,0,0-1,.25,2.15,2.15,0,0,0-.71.63,2.84,2.84,0,0,0-.4.9,4,4,0,0,0,0,2,2.94,2.94,0,0,0,.4.9,2.18,2.18,0,0,0,.71.64A1.92,1.92,0,0,0,472.61,133.75Z" />
    <path class="cls-2" d="M478.05,127h1.64v1.53h0a1.73,1.73,0,0,1,.3-.63,3.16,3.16,0,0,1,.54-.56,3,3,0,0,1,.69-.4,2.16,2.16,0,0,1,.78-.15h.42l.24,0v1.68l-.37,0-.38,0a2.09,2.09,0,0,0-.83.17,1.9,1.9,0,0,0-.68.52,2.48,2.48,0,0,0-.46.85,3.52,3.52,0,0,0-.17,1.17v3.76h-1.75Z" />
    <path class="cls-2" d="M483.44,127h1.65v1.1h.05a3.69,3.69,0,0,1,.43-.53,2.28,2.28,0,0,1,.51-.42,2.52,2.52,0,0,1,.65-.26,3,3,0,0,1,.84-.1,2.79,2.79,0,0,1,1.34.32,1.79,1.79,0,0,1,.88,1,3.46,3.46,0,0,1,1-1,2.69,2.69,0,0,1,1.45-.35,2.87,2.87,0,0,1,2,.61,2.63,2.63,0,0,1,.7,2v5.46h-1.75v-4.62q0-.48,0-.87a1.69,1.69,0,0,0-.18-.67,1,1,0,0,0-.43-.44,1.78,1.78,0,0,0-.8-.15,1.48,1.48,0,0,0-1.28.55,2.61,2.61,0,0,0-.4,1.56v4.64h-1.74v-5.08a2.16,2.16,0,0,0-.3-1.25,1.27,1.27,0,0,0-1.1-.42,1.65,1.65,0,0,0-.65.14,1.53,1.53,0,0,0-.55.4,2,2,0,0,0-.38.64,2.41,2.41,0,0,0-.15.87v4.7h-1.74Z" />
  </g>
  <path class="cls-3" d="M922.59,96.71H832.05a25.56,25.56,0,1,1,0-51.12h90.54a25.56,25.56,0,0,1,0,51.12ZM832.05,52.59a18.56,18.56,0,1,0,0,37.12h90.54a18.56,18.56,0,0,0,0-37.12Z" />
  <path class="cls-3" d="M856.4,74.65H830.56a3.5,3.5,0,0,1,0-7H856.4a3.5,3.5,0,0,1,0,7Z" />
  <path id="Shape_812-2" data-name="Shape 812" class="cls-2" d="M920.75,125.32a1.84,1.84,0,1,0,1.84,1.84,1.84,1.84,0,0,0-1.84-1.84" />
  <path class="cls-3" d="M920.75,132.49a5.34,5.34,0,1,1,5.34-5.33A5.34,5.34,0,0,1,920.75,132.49Zm0-7a1.67,1.67,0,1,0,1.66,1.67A1.66,1.66,0,0,0,920.75,125.49Z" />
  <path id="Shape_813-2" data-name="Shape 813" class="cls-2" d="M904.2,125.32a1.84,1.84,0,1,0,1.84,1.84,1.84,1.84,0,0,0-1.84-1.84" />
  <path class="cls-3" d="M904.2,132.49a5.34,5.34,0,1,1,5.34-5.33A5.34,5.34,0,0,1,904.2,132.49Zm0-7a1.67,1.67,0,1,0,1.66,1.67A1.67,1.67,0,0,0,904.2,125.49Z" />
  <path class="cls-3" d="M922.59,152.74H832.05a25.56,25.56,0,1,1,0-51.12h90.54a25.56,25.56,0,0,1,0,51.12Zm-90.54-44.12a18.56,18.56,0,1,0,0,37.12h90.54a18.56,18.56,0,0,0,0-37.12Z" />
  <path class="cls-3" d="M856.4,130.68H830.56a3.5,3.5,0,0,1,0-7H856.4a3.5,3.5,0,0,1,0,7Z" />
  <path id="Shape_812-3" data-name="Shape 812" class="cls-2" d="M920.75,181.35a1.84,1.84,0,1,0,1.84,1.84,1.84,1.84,0,0,0-1.84-1.84" />
  <path class="cls-3" d="M920.75,188.53a5.34,5.34,0,1,1,5.34-5.34A5.35,5.35,0,0,1,920.75,188.53Zm0-7a1.66,1.66,0,1,0,1.66,1.66A1.66,1.66,0,0,0,920.75,181.53Z" />
  <path id="Shape_813-3" data-name="Shape 813" class="cls-2" d="M904.2,181.35a1.84,1.84,0,1,0,1.84,1.84,1.84,1.84,0,0,0-1.84-1.84" />
  <path class="cls-3" d="M904.2,188.53a5.34,5.34,0,1,1,5.34-5.34A5.35,5.35,0,0,1,904.2,188.53Zm0-7a1.66,1.66,0,1,0,1.66,1.66A1.66,1.66,0,0,0,904.2,181.53Z" />
  <path class="cls-3" d="M922.59,208.78H832.05a25.57,25.57,0,0,1,0-51.13h90.54a25.57,25.57,0,0,1,0,51.13Zm-90.54-44.13a18.57,18.57,0,0,0,0,37.13h90.54a18.57,18.57,0,0,0,0-37.13Z" />
  <path class="cls-3" d="M856.4,186.71H830.56a3.5,3.5,0,0,1,0-7H856.4a3.5,3.5,0,0,1,0,7Z" />
  <circle class="cls-3" cx="95.09" cy="72.44" r="6.23" />
</svg>